<svg id="Layer_1" xmlns="http://www.w3.org/2000/svg" viewBox="0 0 350 120"><style>.st0{fill:#f05b71}.st1{fill:#808184}.st2{fill:#62b799}</style><path class="st0" d="M34.4 57.6c.2 1.2.5 2.4.8 3.6.7.8 4.9 5 10.7 5h.2c4.9-.1 9.8-3.2 14.5-9.1-.4-1.3-1-2.5-1.7-3.6-.2-.4-.5-.8-.8-1.2-3.2 5.2-8 6.7-12.4 6.7-4.8 0-9.2-1.8-11-2.6-.1.6-.2 1-.3 1.2zm9.4-11.4c.1 0 .1 0 0 0 .1 0 .1 0 0 0 .9 0 2.1.4 3.3 1-.9-1.2-1.9-2.2-2.7-3.1-.2.6-.4 1.3-.6 2.1zm.6 2c.5 1.1 2.1 4.2 4.5 3.8.5-.1.7-.2.8-.2-.1-.4-1-1.5-2.7-2.5-1.1-.7-2-1-2.6-1.1z"/><path class="st0" d="M35.3 54.5c1.1.5 3.6 1.6 6.7 2.2-1.9-3.2-.5-9.6.4-13-3.8 3.2-6 7.8-7.1 10.8zm16 1.4c2.3-1 4.2-2.8 5.6-5.3-3.3-3.8-7.5-5.9-10.2-7 2.6 2.8 6 7.3 5.3 10.8-.1.6-.4 1.1-.7 1.5zm25.9-21.6c5.1 4.5 7.9 8.6 9.3 11.2.1-.7.2-1.5.2-2.3-6.5-15.1-21.5-25.8-39-25.8-1.1 0-2.3.1-3.4.1C55.8 21 68 26.2 77.2 34.3z"/><path class="st0" d="M59.9 40.2h-.3c-5.2-1.1-9.7-.8-13.6 1.1 3.3 1.1 10.4 4.2 14.5 11.1 3.1 5.2 3.9 11.5 2.4 18.7 6.9-5.4 9.6-12.3 8.1-20.5v-.4c-2.8-3.9-6.5-7.2-11.1-10zm-5.2 49.7c-4.3-2.7-7.8-5.7-10.6-8.8-.1-.1-.2-.1-.2-.2-5.6-6.2-8.8-12.8-10.4-18.8 0-.1-.1-.2-.1-.3-.4-1.3-.6-2.7-.9-3.9v-.1c-.2-1.3-.4-2.5-.5-3.6-.8-8.4.5-15.4 1.4-18.8-4.1 2.2-7.8 4.7-10.8 7-.1 1.9-.3 9.4 2.7 18.3 3.2 9.3 10.6 22 28.3 29.9.3-.3.7-.5 1.1-.7z"/><path class="st0" d="M39.6 96.2c1.2-.3 5.8-1.7 11.7-4.5-17.3-8.2-24.8-21-27.9-30.5-2.5-7.5-2.9-14-2.8-17.3-4.6 3.8-7.5 7.1-8.4 8.1-.1 9.6 1.4 21.6 7.3 34.1 1.1 1 7.5 6.6 20.1 10.1z"/><path class="st0" d="M12.3 49c1.7-1.8 4.6-4.7 8.5-7.8.1-.2.3-.3.5-.4 3.5-2.8 7.9-5.7 12.9-8.2.1-.1.3-.2.5-.3.7-.3 1.4-.7 2.1-1 .2-.2.4-.3.7-.3 6.7-2.9 14.5-5 23.1-5.2-6.9-3.4-14.3-5.8-21.3-7.6C29.6 20.3 21 25.6 14.9 33c-.7 2.5-2.2 8.2-2.6 16z"/><path class="st0" d="M17.9 87.1l-.1-.1c-6.2-13-7.6-25.3-7.6-34.2 0-6.4.8-11.8 1.6-15.6C7.6 43.8 5.2 51.6 5.2 60c0 13.4 6.2 25.3 15.9 33.1-1.2-2-2.2-4-3.2-6zm26.1-31c.7.7 1.9.8 3.5.2C49 55.8 49.8 55 50 54v-.3c-.3.1-.6.2-1 .2h-.6c-2.7 0-4.4-2.3-5.4-4-.1 2.8 0 5.2 1 6.2zm44.2-8.8c-.1.6-.2 1.1-.3 1.7v.2c-1.4 7.9-4.2 14.5-7.7 20.1-.1.2-.1.3-.3.4-4.8 7.4-10.8 13-16.3 16.9-8.1 5.8-15.9 8.9-20.3 10.4 6 1.3 13.3 2.1 21.8 1.7 14.7-6.6 25-21.4 25-38.7 0-4.4-.6-8.7-1.9-12.7z"/><path class="st0" d="M21.7 90.3c1 1.9 2.2 3.8 3.5 5.7 6.5 4.1 14.2 6.4 22.5 6.4 4.1 0 8.1-.6 11.8-1.7-20-.1-32.2-6.5-37.8-10.4zm37.8-16.8c.4-.2.7-.5 1.1-.7 1.3-5 1.6-9.5.7-13.5-4.8 5.7-9.9 8.7-15.1 8.8h-.3c-4.2 0-7.5-1.8-9.6-3.4 1.9 5.4 4.8 10.3 8.7 14.6 1.8-.4 8.4-2 14.5-5.8zM35.7 34.1c-.6 1.8-2.6 9.5-1.9 18.9 1.4-3.7 4.2-8.9 9.3-12.2 3.5-2.3 7.5-3.3 12-3.1-8-3.7-15.4-4.5-17.2-4.6-.8.3-1.5.6-2.2 1z"/><path class="st0" d="M62.5 85c6.6-4.7 11.8-10.1 15.7-16.1-.7-5.6-2.4-10.7-4.9-15.1.4 9.5-5 15.9-11.2 20.2-.1.2-.3.3-.6.4-5.8 3.8-12.2 5.8-15.1 6.5 2.9 2.9 6.3 5.5 10.1 7.9 2.1-1.1 4-2.4 6-3.8z"/><path class="st0" d="M86 49.1c-.4-1.1-2.7-6.9-10.2-13.4-3.5-3-7.3-5.6-11.4-7.9-.1 0-.2.1-.4.1-8.3-.3-15.8 1.3-22.4 3.7 3.7.6 9.5 1.9 15.6 4.9 8.8 4.3 19.6 13 22.6 29.9 3-5.3 5.1-11.1 6.2-17.3z"/><path class="st1" d="M103.5 100.8c.1-1.4.2-3.8.2-7.2v-3.8c0-1.6-.1-2.9-.2-4.1-.1-.7-.1-1-.2-1.2-.1-.1-.5-.2-1.1-.3l-1.1-.2v-.8c1.5 0 2.4.1 2.9.1h3.6l2.9-.1c1.2 0 2.4.1 3.6.3s2.3.7 3.3 1.5c1 .7 1.8 1.7 2.3 2.8.5 1.1.8 2.4.8 3.9 0 3-1 5.5-3 7.4-2 2-4.6 2.9-7.9 2.9H108c-1.6-.1-2.6-.1-3-.1-.7 0-1.6.1-2.7.2v-.6l1.2-.7zm2.8-.1c1.2.2 2.2.3 3.2.3 2.5 0 4.4-.6 5.8-1.9 1.7-1.5 2.5-3.8 2.5-6.8 0-2.6-.7-4.5-2.1-5.9-1.4-1.4-3.4-2-6-2-.9 0-2 .1-3.3.3-.1.8-.2 1.8-.2 2.9v8.7c0 1.5 0 3 .1 4.4zm32.1-7.6v7.8c1.3.1 2.7.1 4.2.1 1 0 1.8 0 2.5-.1.4-.1.9-.2 1.4-.3.2-.8.4-1.8.7-2.9h.9c-.2 1.9-.4 3.2-.4 3.9v.6c-1 .1-2 .1-3 .1h-2.1c-2.3-.1-4-.1-5.1-.1-1 0-2.4 0-4.1.1v-.8h.4c.8 0 1.3-.1 1.5-.2.2-.2.3-.5.4-1.1s.1-1.8.1-3.7V89c0-1.2 0-2.2-.1-2.9-.1-.8-.1-1.2-.2-1.4-.1-.1-.2-.3-.3-.3s-.5-.2-1.1-.2l-1-.1v-.8h4.6l5.1-.1h2.4c.8 0 1.7 0 2.5.1-.3 1.1-.5 2.4-.6 4.1h-.9c0-1 0-1.8-.1-2.4-1-.4-2.3-.6-3.8-.6-1.2 0-2.5.1-3.8.2v7.2c.9.1 1.6.1 2.3.1 2.1 0 3.3-.1 3.6-.2.3-.1.4-.6.4-1.4v-.9h.9c-.1 1.3-.1 2.4-.1 3.2 0 .8 0 1.8.1 3h-.9v-.8c0-.8-.2-1.4-.5-1.6-.3-.2-1.5-.3-3.5-.3-.8.1-1.6.1-2.4.2zm34.2-9c-.2.9-.4 2.1-.4 3.7h-.9v-1.1c0-.7-.1-1.2-.3-1.4-.2-.2-.7-.5-1.5-.8-.8-.3-1.6-.4-2.5-.4-1.4 0-2.5.4-3.3 1.1-.8.7-1.2 1.6-1.2 2.8 0 .7.2 1.3.5 1.8s.8.9 1.3 1.1c.6.2 1.8.4 3.6.6 1.8.2 3.1.4 3.7.7.6.3 1.2.8 1.5 1.4s.6 1.4.6 2.3c0 1.8-.7 3.3-2.2 4.6s-3.5 1.9-5.9 1.9c-.8 0-1.7-.1-2.6-.3-.9-.2-1.7-.4-2.6-.8.2-1.1.2-2.4.2-4.1h.9v.7c0 .9 0 1.4.1 1.6s.3.4.6.6c.5.3 1.1.6 1.7.8s1.4.3 2.2.3c1.7 0 3-.4 3.9-1.2.9-.8 1.4-1.8 1.4-3 0-.7-.2-1.3-.5-1.8s-.7-.9-1.3-1.1c-.6-.2-1.6-.4-3.1-.5-2-.2-3.4-.4-4.1-.7-.7-.3-1.3-.8-1.7-1.5-.4-.7-.6-1.5-.6-2.6 0-1.7.6-3.1 1.9-4.2 1.2-1.1 3-1.6 5.2-1.6.9 0 1.8.1 2.7.3.9.2 1.8.4 2.7.8zm13.2 17.2h.8c.8 0 1.3-.2 1.5-.6.2-.4.2-2.3.2-5.7v-4.5c0-3.5-.1-5.5-.2-5.8s-.6-.5-1.3-.5h-1.1v-.8c1.5.1 2.9.1 4.4.1 1.2 0 2.3 0 3.3-.1v.8h-1c-.6 0-1 .1-1.2.2-.2.2-.3.5-.3 1.1 0 .9-.1 2.6-.1 5.1v4.6c0 3.4.1 5.3.2 5.7s.6.5 1.5.5h.9v.8c-1.1-.1-2.3-.1-3.6-.1-1.5 0-2.8 0-4.1.1v-.9zm38.2-5.5c-.1.7-.2 1.5-.2 2.3 0 .8.1 1.7.2 2.7-1.2.5-2.5.8-4 1.1-1.5.3-2.9.4-4.3.4-2.1 0-3.9-.4-5.5-1.2-1.6-.8-2.8-2-3.6-3.4-.8-1.5-1.3-3.1-1.3-5s.5-3.6 1.4-5.1c.9-1.5 2.2-2.6 3.8-3.5 1.6-.8 3.7-1.2 6.2-1.2 1 0 2 .1 2.8.2.9.1 2 .4 3.4.8l1.1.3c-.2.9-.4 2.2-.6 3.9h-.8v-.9c0-.9-.1-1.4-.2-1.5-.3-.3-1-.6-2.1-1.1-1.1-.4-2.4-.6-3.9-.6-2.6 0-4.6.7-6 2.1-1.5 1.5-2.3 3.5-2.3 6 0 2.4.7 4.4 2 6.1 1.6 1.9 3.8 2.9 6.5 2.9 1.4 0 3-.3 4.7-.9.1-.7.1-1.5.1-2.4 0-1.1 0-1.7-.1-1.9 0-.2-.1-.3-.2-.3s-.6-.1-1.4-.2l-1.6-.1v-.8c2 .1 3.5.1 4.5.1.8 0 1.6 0 2.2-.1v.7l-.8.6zm17-9.6v9.2c0 2.1 0 3.5.1 4.4.1.6.2 1 .3 1.1s.6.2 1.3.3l.9.1v.8c-1-.1-1.8-.1-2.6-.1-.5 0-1.8 0-3.7.1v-.8h1c.6 0 1-.1 1.1-.2s.3-.5.3-.9c.1-1 .1-2.3.1-4V85.9c0-.5-.1-.9-.2-1.1-.1-.2-.3-.4-.5-.5s-.6-.2-1-.2h-.8v-.8c1.1.1 2 .1 2.6.1.6 0 1.3 0 2.1-.1.9 1.1 1.7 2.1 2.5 3.1s1.6 2 2.4 3.1l4.5 5.6c1.6 2 2.8 3.4 3.5 4.2v-8.5c0-3.6-.1-5.5-.2-5.8-.1-.3-.6-.5-1.5-.6l-1-.1v-.8c1.4.1 2.5.1 3.3.1.8 0 1.9 0 3.2-.1v.8h-1c-.8 0-1.3.3-1.4.8-.1.4-.1 2.3-.1 5.8v6c0 1.6.1 3.5.2 5.8-1.2-.2-1.9-.3-2.1-.4-.2-.1-.4-.2-.6-.4-1-1.1-2-2.3-3.1-3.6L241 86.2zm41.8-2.1c-.2.9-.4 2.1-.4 3.7h-.9v-1.1c0-.7-.1-1.2-.3-1.4-.2-.2-.7-.5-1.5-.8-.8-.3-1.6-.4-2.5-.4-1.4 0-2.5.4-3.3 1.1-.8.7-1.2 1.6-1.2 2.8 0 .7.2 1.3.5 1.8s.8.9 1.3 1.1c.6.2 1.8.4 3.6.6 1.8.2 3.1.4 3.7.7.6.3 1.2.8 1.5 1.4.4.6.6 1.4.6 2.3 0 1.8-.7 3.3-2.2 4.6s-3.5 1.9-5.9 1.9c-.8 0-1.7-.1-2.6-.3-.9-.2-1.7-.4-2.6-.8.2-1.1.2-2.4.2-4.1h.9v.7c0 .9 0 1.4.1 1.6.1.2.3.4.6.6.5.3 1.1.6 1.7.8s1.4.3 2.2.3c1.7 0 3-.4 3.9-1.2.9-.8 1.4-1.8 1.4-3 0-.7-.2-1.3-.5-1.8s-.7-.9-1.3-1.1-1.6-.4-3.1-.5c-2-.2-3.4-.4-4.1-.7-.7-.3-1.3-.8-1.7-1.5-.4-.7-.6-1.5-.6-2.6 0-1.7.6-3.1 1.9-4.2 1.2-1.1 3-1.6 5.2-1.6.9 0 1.8.1 2.7.3.9.2 1.8.4 2.7.8z"/><path class="st2" d="M344.8 51.6l-.7-.4c-12.4 17.8-23.1 13-23.2 4.6 2.9-2.4 4.9-4.9 7.2-8.8 0-.1 3.6-6.7 1.9-8.4-.5-.5-1.3-.5-2.3 0-.1.1-.2.1-.3.2 0 0-6.2 3.4-8.9 11.7-.7 2.1-1 4.2-1 6.2-.1.1-.2.2-.4.3-3.4 1.4-7.9 2.7-11 .9.1-3.2-.8-7.3-3.3-12.6-.5-1.1-1.1-2.1-1.7-3.1-.8-1.3-1.5-2.6-2-3.8 1-1.4 1.9-3 1.9-4.5 0-.9-1.4-4.1-4-3.3-2.6.8-2 5.8-2 5.9.1 1.3.5 2.5 1 3.6 0 .1-.1.1-.1.2-6.5 7.3-21.5 15.6-22.2 14-.1-2.3-1.2-6.5-4.2-6.9-.5-.1-11.3-2.4-17.8 7-.2.4-10.6 9.4-15 7-2.1-1.2 4-8.2.5-13.3-1.9-2.8-5.3 1.2-13.2-.7.9-1.1 3-8.8-2.4-6.7-3.3 1.3.1 7.2.5 7.6-1.2 2.2-2.9 4.6-5 7-3.7 4-17.7 13.2-19.2-5.3 13.5-17 17.1-29.2 14.3-31.7-.5-.4-1.3-.7-2.6-.1 0 0-5.7 2-12.8 18.1-2.2 4.9-3.2 11.1-3 16.6-10.1 12.6-16.1 12.2-18.8 9.6-1.7-1.6-1.9-5-1.5-7.7.6-.5 1.2-1.1 1.8-1.6 5.7-5 8.1-11.7 7.4-14.4-.3-1-1-1.3-1.3-1.3h-.7s-7.9 3.1-10.7 18.4c-3.5 2.8-11 8.3-12-5.6-1.2-15.8-17.1 2.7-21.4 7.8-.4.4-.7.8-1 1.2.1-.2 3.6-9.5 3.9-14.5.2-3.9-2.4-5.2-2.4-5.2-2.2-1.3-5.9.4-11.8 5.1-1.5 1.2-3.8 3.5-6.1 5.9l7.6-12.1-3.5-2.2-21.7 34.5 2.8 1.5 11.5-15.1c3.6-4 7.8-9.5 10.3-11.5 6.2-5 8.4-5.7 10-5.1 2.9 1.2-5.7 20.8-6.4 23l3 .9.2.1.1-.1s2.3-2.7 2.8-3.3c.9-1 1.7-2 2.6-3.1 8.5-9.6 16.3-14.9 16.3-8.7 0 3.4-.9 10.2 3.4 12.7 1.3.8 7.6.8 12.1-4.6.2 2.6.2 4.9 2.4 7 7.4 7 14.6-1.9 21.6-9.9.2 2.2.8 4.3 1.8 6.2 1.6 3 4.5 5.1 7.9 4.7 9.9-1.3 16.7-11 19.9-17 1.3.5 3.1.8 5.6.8 13-1.6 1.2 10.1 4.9 15 2.4 3.2 14.1-4.3 16.4-6.2-1.3 7.6 4.5 9.1 4.5 9.1 2.6 1.2 6.3.9 9.7-.7 2.3-1.1 7.1-4 8.7-8.8 6.9-1.4 17.7-9.3 23.5-16.3.5.9.9 1.7 1.4 2.6.6 1 1.1 1.9 1.6 2.9 1 2 2.4 5.5 2.8 8.9-4-2.8-8.6-2.8-10.6-1.7-2.7 1.5-3.9 5.1-3.2 8.2 1.7 7.7 11.8 8.9 16.9-.8 5 .6 9.3-1.4 11.9-3.1.3 8.4 13.6 14.5 26.8-6.8zm-170.4.2c-.2.1-.3.3-.5.4.8-2.8 2.2-5.5 3.4-7.8l.2-.3c1-1.9 2.2-4 3.9-4.7.1 2.5-2 8-7 12.4zm23.2-4.8c-1-11 11.7-28.5 13.2-28 2.8 1-.7 11.8-13.2 28zm25.5-.9c-1.1-.3-1.6-4.2.4-4.2.1 0 .3 0 .4.1.6.5.2 3.4-.8 4.1zm46.3 2.5c2.5.8 2.9 3.7 3 5.6-1.3 0-2.6-.3-3.8-.7-4.8-1.9-.9-5.5.8-4.9zm-15.1 7.6c1.3-3.7 6.1-5.4 9.7-6.2-.1.5-.2 1-.2 1.6.1 2.1 1.3 4 3.3 5 1.5.8 3.2 1.1 4.8 1.1-3.8 9.3-21.8 10.7-17.6-1.5zm45.6-22.7c.6 1.2-.9 3.7-1.3 2.9-1-1.9.5-4.6 1.3-2.9zM295.1 55c4.9-.5 10.1 7.2 4 10.5-7.8 4.4-13.2-8-4-10.5zm34-15.5c.9 0-1.3 5.4-2.1 6.8-1.9 3.2-3.6 5.4-5.8 7.4 1.3-8.3 6.9-14.6 7.9-14.2z"/></svg>