<svg id="Layer_1" xmlns="http://www.w3.org/2000/svg" viewBox="0 0 500 500"><style>.st0{fill:#f05b71}</style><path class="st0" d="M181.1 237.6c1.1 6.3 2.4 12.4 4 18.4 3.7 4.1 25.3 26.1 55.6 26.1h1.2c25.6-.5 50.9-16.5 75.2-47.4-2.3-6.6-5.2-12.9-8.7-18.9-1.2-2.1-2.6-4.1-3.9-6-16.8 26.8-41.4 34.7-64.5 34.7-24.9 0-47.8-9.1-57.2-13.3-.9 3-1.4 5.2-1.7 6.4zM230.1 178.2h.4c4.4 0 10.5 2 16.7 5.1-4.7-6-9.7-11.7-14.2-16.3-1.1 3.6-2 7.3-2.9 11.2zM233.1 188.5c2.6 5.8 10.9 21.7 23.2 20 2.7-.4 3.8-.9 4.2-1.2-.4-2-5.1-7.8-14.3-13.2-5.5-3.3-10.1-4.9-13.1-5.6z"/><path class="st0" d="M185.9 221.5c5.6 2.6 18.9 8.3 35 11.3-10-16.6-2.8-49.7 2.2-67.6-20.3 16.9-31.6 40.5-37.2 56.3zM269 228.7c11.9-5.4 21.6-14.6 28.9-27.5-17-19.8-38.9-30.8-53.1-36.4 13.4 14.6 31.2 37.9 27.5 56.1-.6 2.9-1.7 5.5-3.3 7.8zM403.3 116.7c26.4 23.2 40.8 44.4 48.3 58.3.4-3.9.8-7.8 1.1-11.8C419.1 84.6 341 29.5 250 29.5c-5.9 0-11.7.3-17.5.8 59.9 17.3 122.9 44.3 170.8 86.4z"/><path class="st0" d="M313.7 147.4c-.5 0-1 0-1.5-.1-26.7-5.9-50.4-4-70.5 5.7 17.1 5.7 53.8 21.6 75.3 57.6 16.1 27 20.3 59.6 12.4 97.1 35.7-28.1 49.8-63.9 41.9-106.6-.1-.6-.1-1.2 0-1.8-14.9-20.4-34.2-37.7-57.6-51.9zM286.6 405.2c-22.2-14.1-40.4-29.5-55.3-45.5-.5-.3-.9-.8-1.2-1.3-29.3-32-45.5-66.4-54.1-97.8-.2-.5-.4-1-.4-1.6-1.9-7-3.3-13.8-4.5-20.4 0-.2-.1-.3-.1-.5-1.1-6.5-2-12.9-2.6-18.9-4.3-43.5 2.6-79.8 7.1-97.5-21.5 11.5-40.3 24.2-55.9 36.4-.6 9.8-1.7 49 13.9 95.1 16.4 48.4 55.3 114.4 146.9 155.3 2.1-1.1 4.2-2.2 6.2-3.3z"/><path class="st0" d="M208.2 437.9c6.4-1.7 30.3-8.8 60.9-23.6-90-42.7-128.6-109.2-145.2-158.3-13.2-39-14.8-72.6-14.6-89.6-23.9 19.9-38.8 36.8-43.2 42-.7 49.7 7.3 112.3 38.1 177.3 5 4.8 38.6 34.2 104 52.2z"/><path class="st0" d="M66.6 192.8c9-9.6 23.9-24.4 44.1-40.4.6-.9 1.4-1.5 2.4-1.9 18.4-14.3 40.9-29.4 67.1-42.5.7-.7 1.7-1.2 2.7-1.3 3.6-1.7 7.2-3.4 10.9-5.1.9-1.1 2.3-1.7 3.8-1.7 34.7-15.1 75.1-25.9 120-27-36-17.4-74.3-30.1-110.6-39.3-50.9 10.1-95.5 37.6-127.3 76.2-3.7 12.9-11.1 42.8-13.1 83z"/><path class="st0" d="M95.5 390.9c-.1-.3-.3-.5-.4-.8-32-67.5-39.7-131.2-39.4-177.5.2-33.3 4.2-61.1 8.3-80.8C42.2 166 29.5 206.5 29.5 250c0 69.5 32.2 131.5 82.5 171.9-6.1-10.4-11.6-20.8-16.5-31zM231.1 229.8c3.6 3.6 9.7 3.9 18.3 1 7.7-2.6 12-6.5 13.1-11.9.1-.5.1-1.1.2-1.7-1.4.5-3.1.9-5 1.2-1.1.1-2.2.2-3.2.2-13.8 0-23-12.1-27.8-20.6-1.7 13.9-1 26.4 4.4 31.8zM460.5 184.2c-.4 3-.9 6-1.4 8.9 0 .4-.1.8-.2 1.2-7.2 40.8-21.9 75.3-40.2 104.2-.3.9-.8 1.7-1.4 2.3-24.9 38.7-56.3 67.2-84.7 87.5-41.9 29.9-82.8 46.5-105.5 54.2 31.4 6.8 69.1 10.7 113.2 8.6C417 416.6 470.5 339.6 470.5 250c0-22.9-3.5-45-10-65.8z"/><path class="st0" d="M115.3 407.4c5.4 9.9 11.5 19.8 18.1 29.7 33.8 21.1 73.8 33.4 116.6 33.4 21.3 0 41.9-3.1 61.4-8.7-103.6-.9-167-34.1-196.1-54.4zM311.5 320.2c1.9-1.2 3.7-2.4 5.5-3.5 6.9-25.9 8.1-49.4 3.5-70.2-24.9 29.8-51.3 45.2-78.4 45.6h-1.3c-21.6 0-38.9-9.4-50-17.7 9.8 28.1 24.9 53.4 45.3 75.8 9.3-2.1 43.6-10.6 75.4-30zM187.7 115.5c-2.9 9.6-13.7 49.2-9.6 98.2 7.4-19.2 21.8-46.1 48.1-63.3 18.1-11.9 39-17.3 62.5-16.3-41.5-19-80.2-23.2-89.3-23.9-4.1 1.7-7.9 3.5-11.7 5.3z"/><path class="st0" d="M327 380c34.1-24.4 61.3-52.4 81.7-83.7-3.9-29.3-12.4-55.5-25.3-78.4 2.2 49.3-25.7 82.8-57.9 104.9-.7 1-1.7 1.6-2.9 1.9-30.2 19.9-63.3 30-78.6 34 15 15.1 32.6 28.8 52.7 41 9.8-5.9 20.1-12.4 30.3-19.7z"/><path class="st0" d="M449 193.3c-2-5.7-14.1-35.6-53.1-69.7-18-15.7-38.1-29.2-59.4-40.9-.6.2-1.3.4-2 .3-43-1.4-82 6.6-116.2 19.3 19.2 3.1 49.4 10.1 80.9 25.6C344.9 150.4 401 195.4 416.8 283c15.7-27.5 26.5-57.4 32.2-89.7z"/></svg>