<?xml version="1.0" encoding="utf-8"?>
<!-- Generator: Adobe Illustrator 19.1.0, SVG Export Plug-In . SVG Version: 6.00 Build 0)  -->
<svg version="1.1" id="Layer_1" xmlns="http://www.w3.org/2000/svg" xmlns:xlink="http://www.w3.org/1999/xlink" x="0px" y="0px"
	 viewBox="0 0 500 500" style="enable-background:new 0 0 500 500;" xml:space="preserve">
<style type="text/css">
	.st0{fill:#F05B71;}
</style>
<g>
	<path class="st0" d="M181.1,237.6c1.1,6.3,2.4,12.4,4,18.4c3.7,4.1,25.3,26.1,55.6,26.1c0.4,0,0.8,0,1.2,0
		c25.6-0.5,50.9-16.5,75.2-47.4c-2.3-6.6-5.2-12.9-8.7-18.9c-1.2-2.1-2.6-4.1-3.9-6c-16.8,26.8-41.4,34.7-64.5,34.7
		c-24.9,0-47.8-9.1-57.2-13.3C181.9,234.2,181.4,236.4,181.1,237.6z"/>
	<path class="st0" d="M230.1,178.2c0.1,0,0.2,0,0.3,0c0,0,0.1,0,0.1,0c4.4,0,10.5,2,16.7,5.1c-4.7-6-9.7-11.7-14.2-16.3
		C231.9,170.6,231,174.3,230.1,178.2z"/>
	<path class="st0" d="M233.1,188.5c2.6,5.8,10.9,21.7,23.2,20c2.7-0.4,3.8-0.9,4.2-1.2c-0.4-2-5.1-7.8-14.3-13.2
		C240.7,190.8,236.1,189.2,233.1,188.5z"/>
	<path class="st0" d="M185.9,221.5c5.6,2.6,18.9,8.3,35,11.3c-10-16.6-2.8-49.7,2.2-67.6C202.8,182.1,191.5,205.7,185.9,221.5z"/>
	<path class="st0" d="M269,228.7c11.9-5.4,21.6-14.6,28.9-27.5c-17-19.8-38.9-30.8-53.1-36.4c13.4,14.6,31.2,37.9,27.5,56.1
		C271.7,223.8,270.6,226.4,269,228.7z"/>
	<path class="st0" d="M403.3,116.7c26.4,23.2,40.8,44.4,48.3,58.3c0.4-3.9,0.8-7.8,1.1-11.8C419.1,84.6,341,29.5,250,29.5
		c-5.9,0-11.7,0.3-17.5,0.8C292.4,47.6,355.4,74.6,403.3,116.7z"/>
	<path class="st0" d="M313.7,147.4c-0.5,0-1,0-1.5-0.1c-26.7-5.9-50.4-4-70.5,5.7c17.1,5.7,53.8,21.6,75.3,57.6
		c16.1,27,20.3,59.6,12.4,97.1c35.7-28.1,49.8-63.9,41.9-106.6c-0.1-0.6-0.1-1.2,0-1.8C356.4,178.9,337.1,161.6,313.7,147.4z"/>
	<path class="st0" d="M286.6,405.2c-22.2-14.1-40.4-29.5-55.3-45.5c-0.5-0.3-0.9-0.8-1.2-1.3c-29.3-32-45.5-66.4-54.1-97.8
		c-0.2-0.5-0.4-1-0.4-1.6c-1.9-7-3.3-13.8-4.5-20.4c0-0.2-0.1-0.3-0.1-0.5c-1.1-6.5-2-12.9-2.6-18.9c-4.3-43.5,2.6-79.8,7.1-97.5
		c-21.5,11.5-40.3,24.2-55.9,36.4c-0.6,9.8-1.7,49,13.9,95.1c16.4,48.4,55.3,114.4,146.9,155.3C282.5,407.4,284.6,406.3,286.6,405.2
		z"/>
	<path class="st0" d="M208.2,437.9c6.4-1.7,30.3-8.8,60.9-23.6C179.1,371.6,140.5,305.1,123.9,256c-13.2-39-14.8-72.6-14.6-89.6
		c-23.9,19.9-38.8,36.8-43.2,42c-0.7,49.7,7.3,112.3,38.1,177.3C109.2,390.5,142.8,419.9,208.2,437.9z"/>
	<path class="st0" d="M66.6,192.8c9-9.6,23.9-24.4,44.1-40.4c0.6-0.9,1.4-1.5,2.4-1.9c18.4-14.3,40.9-29.4,67.1-42.5
		c0.7-0.7,1.7-1.2,2.7-1.3c3.6-1.7,7.2-3.4,10.9-5.1c0.9-1.1,2.3-1.7,3.8-1.7c34.7-15.1,75.1-25.9,120-27
		c-36-17.4-74.3-30.1-110.6-39.3c-50.9,10.1-95.5,37.6-127.3,76.2C76,122.7,68.6,152.6,66.6,192.8z"/>
	<path class="st0" d="M95.5,390.9c-0.1-0.3-0.3-0.5-0.4-0.8c-32-67.5-39.7-131.2-39.4-177.5c0.2-33.3,4.2-61.1,8.3-80.8
		C42.2,166,29.5,206.5,29.5,250c0,69.5,32.2,131.5,82.5,171.9C105.9,411.5,100.4,401.1,95.5,390.9z"/>
	<path class="st0" d="M231.1,229.8c3.6,3.6,9.7,3.9,18.3,1c7.7-2.6,12-6.5,13.1-11.9c0.1-0.5,0.1-1.1,0.2-1.7
		c-1.4,0.5-3.1,0.9-5,1.2c-1.1,0.1-2.2,0.2-3.2,0.2c-13.8,0-23-12.1-27.8-20.6C225,211.9,225.7,224.4,231.1,229.8z"/>
	<path class="st0" d="M460.5,184.2c-0.4,3-0.9,6-1.4,8.9c0,0.4-0.1,0.8-0.2,1.2c-7.2,40.8-21.9,75.3-40.2,104.2
		c-0.3,0.9-0.8,1.7-1.4,2.3c-24.9,38.7-56.3,67.2-84.7,87.5c-41.9,29.9-82.8,46.5-105.5,54.2c31.4,6.8,69.1,10.7,113.2,8.6
		C417,416.6,470.5,339.6,470.5,250C470.5,227.1,467,205,460.5,184.2z"/>
	<path class="st0" d="M115.3,407.4c5.4,9.9,11.5,19.8,18.1,29.7c33.8,21.1,73.8,33.4,116.6,33.4c21.3,0,41.9-3.1,61.4-8.7
		C207.8,460.9,144.4,427.7,115.3,407.4z"/>
	<path class="st0" d="M311.5,320.2c1.9-1.2,3.7-2.4,5.5-3.5c6.9-25.9,8.1-49.4,3.5-70.2c-24.9,29.8-51.3,45.2-78.4,45.6
		c-0.4,0-0.9,0-1.3,0c-21.6,0-38.9-9.4-50-17.7c9.8,28.1,24.9,53.4,45.3,75.8C245.4,348.1,279.7,339.6,311.5,320.2z"/>
	<path class="st0" d="M187.7,115.5c-2.9,9.6-13.7,49.2-9.6,98.2c7.4-19.2,21.8-46.1,48.1-63.3c18.1-11.9,39-17.3,62.5-16.3
		c-41.5-19-80.2-23.2-89.3-23.9C195.3,111.9,191.5,113.7,187.7,115.5z"/>
	<path class="st0" d="M327,380c34.1-24.4,61.3-52.4,81.7-83.7c-3.9-29.3-12.4-55.5-25.3-78.4c2.2,49.3-25.7,82.8-57.9,104.9
		c-0.7,1-1.7,1.6-2.9,1.9c-30.2,19.9-63.3,30-78.6,34c15,15.1,32.6,28.8,52.7,41C306.5,393.8,316.8,387.3,327,380z"/>
	<path class="st0" d="M449,193.3c-2-5.7-14.1-35.6-53.1-69.7c-18-15.7-38.1-29.2-59.4-40.9c-0.6,0.2-1.3,0.4-2,0.3
		c-43-1.4-82,6.6-116.2,19.3c19.2,3.1,49.4,10.1,80.9,25.6C344.9,150.4,401,195.4,416.8,283C432.5,255.5,443.3,225.6,449,193.3z"/>
</g>
</svg>
