<?xml version="1.0" encoding="utf-8"?>
<!-- Generator: Adobe Illustrator 19.1.0, SVG Export Plug-In . SVG Version: 6.00 Build 0)  -->
<svg version="1.1" id="Layer_1" xmlns="http://www.w3.org/2000/svg" xmlns:xlink="http://www.w3.org/1999/xlink" x="0px" y="0px"
	 viewBox="0 0 500 200" style="enable-background:new 0 0 500 200;" xml:space="preserve">
<style type="text/css">
	.st0{fill:#F05B71;}
	.st1{fill:#808184;}
	.st2{fill:#62B799;}
</style>
<g>
	<g>
		<g>
			<path class="st0" d="M35.4,94c0.2,1.3,0.5,2.6,0.8,3.9c0.8,0.9,5.3,5.5,11.7,5.5c0.1,0,0.2,0,0.3,0c5.4-0.1,10.7-3.5,15.8-10
				c-0.5-1.4-1.1-2.7-1.8-4c-0.3-0.4-0.5-0.9-0.8-1.3c-3.5,5.6-8.7,7.3-13.6,7.3c-5.2,0-10.1-1.9-12-2.8
				C35.5,93.3,35.4,93.8,35.4,94z"/>
			<path class="st0" d="M45.7,81.5C45.7,81.5,45.7,81.5,45.7,81.5C45.7,81.5,45.7,81.5,45.7,81.5c1,0,2.3,0.4,3.6,1.1
				c-1-1.3-2-2.5-3-3.4C46.1,79.9,45.9,80.7,45.7,81.5z"/>
			<path class="st0" d="M46.3,83.7c0.5,1.2,2.3,4.6,4.9,4.2c0.6-0.1,0.8-0.2,0.9-0.3c-0.1-0.4-1.1-1.6-3-2.8
				C47.9,84.2,46.9,83.8,46.3,83.7z"/>
			<path class="st0" d="M36.4,90.6c1.2,0.6,4,1.8,7.4,2.4c-2.1-3.5-0.6-10.5,0.5-14.2C39.9,82.3,37.6,87.3,36.4,90.6z"/>
			<path class="st0" d="M53.9,92.2c2.5-1.1,4.5-3.1,6.1-5.8c-3.6-4.2-8.2-6.5-11.2-7.7c2.8,3.1,6.6,8,5.8,11.8
				C54.4,91.1,54.2,91.7,53.9,92.2z"/>
			<path class="st0" d="M82.1,68.6c5.6,4.9,8.6,9.3,10.2,12.3c0.1-0.8,0.2-1.6,0.2-2.5C85.4,61.8,69,50.2,49.9,50.2
				c-1.2,0-2.5,0.1-3.7,0.2C58.8,54.1,72,59.7,82.1,68.6z"/>
			<path class="st0" d="M63.3,75.1c-0.1,0-0.2,0-0.3,0c-5.6-1.2-10.6-0.8-14.8,1.2c3.6,1.2,11.3,4.5,15.8,12.1
				c3.4,5.7,4.3,12.5,2.6,20.4c7.5-5.9,10.5-13.4,8.8-22.4c0-0.1,0-0.3,0-0.4C72.2,81.7,68.2,78,63.3,75.1z"/>
			<path class="st0" d="M57.6,129.3c-4.7-3-8.5-6.2-11.6-9.6c-0.1-0.1-0.2-0.2-0.2-0.3c-6.2-6.7-9.6-14-11.4-20.6
				c0-0.1-0.1-0.2-0.1-0.3c-0.4-1.5-0.7-2.9-0.9-4.3c0,0,0-0.1,0-0.1c-0.2-1.4-0.4-2.7-0.6-4c-0.9-9.1,0.5-16.8,1.5-20.5
				c-4.5,2.4-8.5,5.1-11.8,7.7c-0.1,2.1-0.4,10.3,2.9,20c3.5,10.2,11.6,24.1,30.9,32.7C56.7,129.7,57.1,129.5,57.6,129.3z"/>
			<path class="st0" d="M41.1,136.1c1.3-0.4,6.4-1.9,12.8-5c-18.9-9-27-23-30.5-33.3c-2.8-8.2-3.1-15.3-3.1-18.8
				c-5,4.2-8.2,7.7-9.1,8.8c-0.1,10.5,1.5,23.6,8,37.3C20.2,126.2,27.3,132.4,41.1,136.1z"/>
			<path class="st0" d="M11.3,84.6c1.9-2,5-5.1,9.3-8.5c0.1-0.2,0.3-0.3,0.5-0.4c3.9-3,8.6-6.2,14.1-8.9c0.2-0.2,0.4-0.3,0.6-0.3
				c0.7-0.4,1.5-0.7,2.3-1.1c0.2-0.2,0.5-0.4,0.8-0.4c7.3-3.2,15.8-5.4,25.2-5.7c-7.6-3.7-15.6-6.3-23.3-8.3
				c-10.7,2.1-20.1,7.9-26.8,16C13.3,69.9,11.7,76.1,11.3,84.6z"/>
			<path class="st0" d="M17.4,126.3c0-0.1-0.1-0.1-0.1-0.2C10.5,111.9,8.9,98.5,9,88.8c0-7,0.9-12.9,1.7-17
				c-4.6,7.2-7.2,15.7-7.2,24.9c0,14.6,6.8,27.7,17.3,36.2C19.5,130.6,18.4,128.4,17.4,126.3z"/>
			<path class="st0" d="M45.9,92.4c0.8,0.8,2,0.8,3.9,0.2c1.6-0.5,2.5-1.4,2.7-2.5c0-0.1,0-0.2,0-0.4c-0.3,0.1-0.6,0.2-1.1,0.2
				c-0.2,0-0.5,0-0.7,0c-2.9,0-4.8-2.6-5.8-4.3C44.6,88.6,44.7,91.2,45.9,92.4z"/>
			<path class="st0" d="M94.1,82.8C94,83.4,94,84,93.8,84.7c0,0.1,0,0.2,0,0.3c-1.5,8.6-4.6,15.8-8.5,21.9c-0.1,0.2-0.2,0.3-0.3,0.5
				c-5.2,8.1-11.8,14.1-17.8,18.4c-8.8,6.3-17.4,9.8-22.2,11.4c6.6,1.4,14.5,2.3,23.8,1.8c16.1-7.3,27.4-23.5,27.4-42.3
				C96.2,91.8,95.5,87.2,94.1,82.8z"/>
			<path class="st0" d="M21.5,129.7c1.1,2.1,2.4,4.2,3.8,6.2c7.1,4.4,15.5,7,24.5,7c4.5,0,8.8-0.6,12.9-1.8
				C41,141,27.6,134,21.5,129.7z"/>
			<path class="st0" d="M62.8,111.4c0.4-0.2,0.8-0.5,1.2-0.7c1.5-5.5,1.7-10.4,0.7-14.8c-5.2,6.3-10.8,9.5-16.5,9.6
				c-0.1,0-0.2,0-0.3,0c-4.5,0-8.2-2-10.5-3.7c2.1,5.9,5.2,11.2,9.5,16C48.9,117.3,56.1,115.5,62.8,111.4z"/>
			<path class="st0" d="M36.7,68.3c-0.6,2-2.9,10.3-2,20.6c1.6-4,4.6-9.7,10.1-13.3C48.6,73.2,53,72,58,72.2c-8.7-4-16.9-4.9-18.8-5
				C38.4,67.6,37.5,67.9,36.7,68.3z"/>
			<path class="st0" d="M66.1,124c7.2-5.1,12.9-11,17.2-17.6c-0.8-6.2-2.6-11.7-5.3-16.5c0.5,10.4-5.4,17.4-12.2,22.1
				c-0.1,0.2-0.4,0.3-0.6,0.4c-6.3,4.2-13.3,6.3-16.5,7.1c3.2,3.2,6.9,6,11.1,8.6C61.8,126.9,63.9,125.5,66.1,124z"/>
			<path class="st0" d="M91.7,84.7c-0.4-1.2-3-7.5-11.2-14.7c-3.8-3.3-8-6.1-12.5-8.6c-0.1,0-0.3,0.1-0.4,0.1
				c-9.1-0.3-17.3,1.4-24.4,4.1c4,0.7,10.4,2.1,17,5.4c9.6,4.7,21.4,14.2,24.7,32.6C88.3,97.8,90.5,91.5,91.7,84.7z"/>
		</g>
		<g>
			<path class="st1" d="M110.8,141.2c0.2-1.5,0.2-4.1,0.2-7.9v-4.2c0-1.7-0.1-3.2-0.2-4.4c-0.1-0.7-0.2-1.1-0.3-1.3
				c-0.1-0.1-0.5-0.2-1.2-0.3l-1.2-0.2V122c1.6,0,2.7,0.1,3.2,0.1l3.9,0l3.2-0.1c1.3,0,2.6,0.1,3.9,0.4c1.3,0.3,2.6,0.8,3.7,1.6
				s1.9,1.8,2.5,3.1c0.6,1.2,0.9,2.7,0.9,4.3c0,3.3-1.1,6-3.3,8.1c-2.2,2.1-5.1,3.2-8.6,3.2l-1.8,0c-1.7-0.1-2.9-0.1-3.3-0.1
				c-0.8,0-1.8,0.1-3,0.2V142L110.8,141.2z M113.9,141.1c1.3,0.2,2.5,0.3,3.4,0.3c2.7,0,4.8-0.7,6.3-2.1c1.8-1.7,2.7-4.2,2.7-7.4
				c0-2.8-0.8-5-2.3-6.4s-3.7-2.2-6.6-2.2c-1,0-2.2,0.1-3.6,0.3c-0.1,0.9-0.2,2-0.2,3.2v9.5C113.7,138,113.8,139.6,113.9,141.1z"/>
			<path class="st1" d="M149,132.8v3.6l0,2c0,1.3,0,2.2,0,2.8c1.4,0.1,2.9,0.2,4.5,0.2c1.1,0,2,0,2.7-0.1c0.5-0.1,1-0.2,1.5-0.4
				c0.2-0.8,0.5-1.9,0.7-3.2h1c-0.3,2.1-0.4,3.5-0.4,4.2l0,0.7c-1.1,0.1-2.2,0.1-3.3,0.1l-2.3,0c-2.5-0.1-4.4-0.1-5.5-0.1
				c-1.1,0-2.6,0-4.5,0.1v-0.9h0.4c0.8,0,1.4-0.1,1.6-0.2c0.2-0.2,0.4-0.6,0.4-1.2s0.1-2,0.1-4v-8c0-1.3,0-2.4-0.1-3.2
				c-0.1-0.8-0.1-1.3-0.2-1.5c-0.1-0.2-0.2-0.3-0.3-0.4c-0.1-0.1-0.6-0.2-1.2-0.2l-1.1-0.1V122h1.6l1.5,0.1c0.9,0,1.5,0.1,2,0.1
				l5.6-0.1l2.6,0c0.9,0,1.8,0,2.7,0.1c-0.4,1.1-0.6,2.6-0.6,4.5h-1c0-1.1-0.1-1.9-0.2-2.7c-1.1-0.4-2.5-0.6-4.2-0.6
				c-1.3,0-2.7,0.1-4.2,0.2c0,0.9,0,1.8,0,2.7l0,2.2v2.9c1,0.1,1.8,0.1,2.5,0.1c2.3,0,3.6-0.1,3.9-0.2s0.5-0.7,0.5-1.5v-0.9h1
				c-0.1,1.5-0.1,2.6-0.1,3.5c0,0.9,0,2,0.1,3.2h-1v-0.8c0-0.9-0.2-1.5-0.5-1.7c-0.4-0.2-1.6-0.3-3.8-0.3
				C150.7,132.7,149.9,132.7,149,132.8z"/>
			<path class="st1" d="M186.3,123c-0.3,1-0.4,2.3-0.4,4h-1v-1.2c0-0.8-0.1-1.3-0.3-1.5c-0.2-0.3-0.7-0.6-1.6-0.9s-1.8-0.5-2.7-0.5
				c-1.5,0-2.8,0.4-3.6,1.2c-0.9,0.8-1.3,1.8-1.3,3c0,0.8,0.2,1.4,0.5,2c0.4,0.6,0.8,1,1.5,1.2c0.6,0.2,1.9,0.5,3.9,0.7
				c2,0.2,3.3,0.4,4,0.8c0.7,0.3,1.3,0.8,1.7,1.5c0.4,0.7,0.6,1.5,0.6,2.5c0,1.9-0.8,3.6-2.4,5c-1.6,1.4-3.8,2.1-6.5,2.1
				c-0.9,0-1.9-0.1-2.8-0.3c-0.9-0.2-1.9-0.5-2.8-0.8c0.2-1.2,0.3-2.6,0.2-4.5h1v0.7c0,0.9,0,1.5,0.1,1.7c0.1,0.2,0.3,0.5,0.7,0.7
				c0.5,0.4,1.2,0.7,1.9,0.9c0.7,0.2,1.5,0.3,2.4,0.3c1.8,0,3.2-0.4,4.2-1.3c1-0.9,1.5-2,1.5-3.3c0-0.8-0.2-1.4-0.5-2
				c-0.3-0.5-0.8-0.9-1.4-1.2s-1.7-0.5-3.4-0.6c-2.2-0.2-3.7-0.4-4.4-0.8c-0.8-0.3-1.4-0.9-1.8-1.6c-0.4-0.7-0.7-1.7-0.7-2.8
				c0-1.9,0.7-3.4,2-4.6c1.4-1.2,3.2-1.8,5.6-1.8c1,0,1.9,0.1,2.9,0.3C184.4,122.2,185.3,122.6,186.3,123z"/>
			<path class="st1" d="M200.7,141.7h0.9c0.9,0,1.4-0.2,1.6-0.7c0.2-0.4,0.3-2.5,0.3-6.2v-4.9c0-3.9-0.1-6-0.2-6.4
				c-0.2-0.4-0.6-0.6-1.4-0.6h-1.2V122c1.6,0.1,3.2,0.1,4.8,0.1c1.3,0,2.5,0,3.6-0.1v0.9h-1.1c-0.7,0-1.1,0.1-1.3,0.2
				c-0.2,0.2-0.3,0.6-0.3,1.2c0,1-0.1,2.9-0.1,5.5v5c0,3.8,0.1,5.8,0.2,6.2c0.2,0.4,0.7,0.6,1.6,0.6h1v0.9c-1.2-0.1-2.5-0.1-3.9-0.1
				c-1.6,0-3.1,0-4.4,0.1V141.7z"/>
			<path class="st1" d="M242.4,135.8c-0.1,0.8-0.2,1.6-0.2,2.5c0,0.9,0.1,1.9,0.2,3c-1.3,0.5-2.7,0.9-4.4,1.2s-3.2,0.5-4.6,0.5
				c-2.3,0-4.3-0.4-6-1.3c-1.7-0.9-3-2.1-4-3.7c-0.9-1.6-1.4-3.4-1.4-5.4c0-2.1,0.5-3.9,1.5-5.6c1-1.6,2.4-2.9,4.2-3.8
				s4-1.4,6.8-1.4c1.1,0,2.1,0.1,3.1,0.2c0.9,0.1,2.2,0.4,3.7,0.9l1.2,0.3c-0.3,1-0.5,2.5-0.6,4.3h-0.9v-1c0-0.9-0.1-1.5-0.2-1.7
				c-0.3-0.3-1.1-0.7-2.3-1.2c-1.2-0.5-2.7-0.7-4.3-0.7c-2.8,0-5,0.8-6.5,2.3c-1.6,1.7-2.5,3.9-2.5,6.6c0,2.6,0.7,4.8,2.2,6.6
				c1.7,2.1,4.1,3.2,7.1,3.2c1.6,0,3.3-0.3,5.1-1c0.1-0.8,0.1-1.7,0.1-2.6c0-1.2,0-1.9-0.1-2.1c0-0.2-0.1-0.3-0.2-0.3
				s-0.6-0.1-1.5-0.2l-1.7-0.1v-0.9c2.2,0.1,3.9,0.1,4.9,0.1c0.9,0,1.7,0,2.4-0.1v0.7L242.4,135.8z"/>
			<path class="st1" d="M261,125.3v10c0,2.3,0,3.9,0.1,4.8c0.1,0.7,0.2,1.1,0.3,1.3c0.2,0.1,0.6,0.3,1.4,0.3l0.9,0.1v0.9
				c-1.1-0.1-2-0.1-2.9-0.1c-0.6,0-1.9,0-4.1,0.1v-0.9h1c0.6,0,1-0.1,1.2-0.3c0.2-0.2,0.3-0.5,0.4-1c0.1-1.1,0.2-2.5,0.2-4.3v-7.2
				c0-1.4,0-2.7,0-4c0-0.6-0.1-0.9-0.2-1.2c-0.1-0.2-0.3-0.4-0.6-0.6c-0.3-0.2-0.6-0.2-1.1-0.2h-0.9V122c1.2,0.1,2.2,0.1,2.8,0.1
				c0.7,0,1.5,0,2.3-0.1c1,1.2,1.9,2.3,2.7,3.4c0.8,1.1,1.7,2.2,2.6,3.3l5,6.1c1.8,2.2,3.1,3.7,3.9,4.5v-9.3c0-3.9-0.1-6-0.2-6.4
				c-0.1-0.4-0.7-0.6-1.7-0.7l-1.1-0.1V122c1.6,0.1,2.8,0.1,3.6,0.1c0.9,0,2.1,0,3.5-0.1v0.9h-1.1c-0.9,0-1.4,0.3-1.6,0.9
				c-0.1,0.4-0.1,2.5-0.1,6.3v6.5c0,1.8,0.1,3.9,0.2,6.3c-1.3-0.2-2.1-0.4-2.3-0.4c-0.2-0.1-0.4-0.2-0.6-0.5c-1.1-1.2-2.2-2.5-3.4-4
				L261,125.3z"/>
			<path class="st1" d="M306.6,123c-0.3,1-0.4,2.3-0.4,4h-1v-1.2c0-0.8-0.1-1.3-0.3-1.5c-0.2-0.3-0.7-0.6-1.6-0.9s-1.8-0.5-2.7-0.5
				c-1.5,0-2.8,0.4-3.6,1.2c-0.9,0.8-1.3,1.8-1.3,3c0,0.8,0.2,1.4,0.5,2c0.4,0.6,0.8,1,1.5,1.2c0.6,0.2,1.9,0.5,3.9,0.7
				c2,0.2,3.3,0.4,4,0.8c0.7,0.3,1.3,0.8,1.7,1.5c0.4,0.7,0.6,1.5,0.6,2.5c0,1.9-0.8,3.6-2.4,5s-3.8,2.1-6.5,2.1
				c-0.9,0-1.9-0.1-2.8-0.3c-0.9-0.2-1.9-0.5-2.8-0.8c0.2-1.2,0.3-2.6,0.2-4.5h1v0.7c0,0.9,0,1.5,0.1,1.7s0.3,0.5,0.7,0.7
				c0.5,0.4,1.2,0.7,1.9,0.9c0.7,0.2,1.5,0.3,2.4,0.3c1.8,0,3.2-0.4,4.2-1.3c1-0.9,1.5-2,1.5-3.3c0-0.8-0.2-1.4-0.5-2
				c-0.3-0.5-0.8-0.9-1.4-1.2s-1.7-0.5-3.4-0.6c-2.2-0.2-3.7-0.4-4.4-0.8c-0.8-0.3-1.4-0.9-1.8-1.6c-0.4-0.7-0.7-1.7-0.7-2.8
				c0-1.9,0.7-3.4,2-4.6c1.4-1.2,3.2-1.8,5.6-1.8c1,0,1.9,0.1,2.9,0.3S305.7,122.6,306.6,123z"/>
		</g>
		<path class="st2" d="M374.4,87.4l-0.7-0.5c-13.6,19.4-25.2,14.2-25.3,5c3.2-2.6,5.3-5.3,7.9-9.6c0-0.1,3.9-7.4,2.1-9.2
			c-0.6-0.6-1.4-0.6-2.6,0c-0.1,0.1-0.2,0.1-0.3,0.2c0,0-6.8,3.7-9.7,12.8c-0.7,2.3-1.1,4.6-1.1,6.8c-0.1,0.1-0.2,0.2-0.4,0.3
			c-3.7,1.6-8.7,2.9-12,1c0.1-3.5-0.9-8-3.6-13.7c-0.5-1.2-1.2-2.3-1.9-3.4c-0.8-1.4-1.6-2.8-2.2-4.2c1.1-1.6,2.1-3.3,2.1-5
			c0-1-1.5-4.5-4.3-3.7c-2.8,0.8-2.1,6.4-2.1,6.4c0.1,1.4,0.5,2.7,1.1,4c-0.1,0.1-0.1,0.1-0.2,0.2c-7.1,8-23.4,17.1-24.3,15.3
			c-0.1-2.5-1.3-7-4.6-7.5c-0.6-0.1-12.3-2.6-19.4,7.6c-0.3,0.4-11.6,10.3-16.4,7.6c-2.3-1.3,4.3-8.9,0.5-14.5
			c-2.1-3-5.8,1.3-14.4-0.8c0.9-1.2,3.3-9.6-2.7-7.3c-3.7,1.4,0.1,7.9,0.5,8.3c-1.3,2.4-3.1,5.1-5.5,7.6c-4,4.3-19.3,14.4-21-5.8
			c14.8-18.6,18.7-31.9,15.6-34.6c-0.5-0.4-1.4-0.8-2.8-0.1c0,0-6.3,2.2-14,19.7c-2.4,5.4-3.5,12.1-3.3,18.2
			c-11,13.8-17.6,13.3-20.5,10.5c-1.8-1.7-2-5.4-1.7-8.5c0.7-0.6,1.4-1.2,2-1.8c6.2-5.5,8.9-12.8,8-15.7c-0.3-1.1-1-1.4-1.5-1.4
			c-0.2,0-0.5,0-0.8,0c0,0-8.6,3.4-11.7,20.1c-3.8,3.1-12,9.1-13.1-6.1c-1.3-17.3-18.7,3-23.4,8.5c-0.4,0.5-0.8,0.9-1.1,1.3
			c0.1-0.2,4-10.4,4.2-15.9c0.2-4.3-2.7-5.7-2.7-5.7c-2.4-1.4-6.5,0.4-12.9,5.6c-1.7,1.3-4.1,3.8-6.7,6.5l8.3-13.2l-3.8-2.4
			l-23.7,37.7l3.1,1.6l12.5-16.5c4-4.4,8.5-10.4,11.3-12.6c6.7-5.4,9.2-6.2,10.9-5.6c3.2,1.3-6.2,22.7-6.9,25.1l3.3,1l0.2,0.1
			c0,0,0-0.1,0.1-0.1c0,0,2.5-2.9,3-3.6c0.9-1.1,1.9-2.2,2.8-3.4c9.3-10.5,17.8-16.2,17.8-9.5c0,3.8-0.9,11.2,3.7,13.8
			c1.4,0.8,8.3,0.9,13.2-5.1c0.2,2.8,0.2,5.4,2.6,7.6c8.1,7.6,15.9-2.1,23.5-10.8c0.3,2.4,0.9,4.7,2,6.7c1.8,3.3,4.9,5.6,8.6,5.1
			c10.8-1.4,18.2-12,21.7-18.5c1.4,0.5,3.4,0.9,6.2,0.9c14.2-1.8,1.3,11,5.3,16.3c2.7,3.5,15.4-4.7,17.9-6.8c-1.4,8.3,4.9,10,4.9,10
			c2.9,1.3,6.9,1,10.6-0.8c2.5-1.2,7.8-4.4,9.5-9.6c7.6-1.6,19.3-10.2,25.6-17.8c0.5,1,1,1.9,1.6,2.8c0.6,1.1,1.2,2.1,1.7,3.1
			c1,2.2,2.6,6,3,9.7c0,0,0,0,0,0c-4.3-3-9.4-3-11.5-1.8c-3,1.6-4.3,5.6-3.5,8.9c1.9,8.4,12.9,9.7,18.4-0.9c5.5,0.6,10.2-1.5,13-3.3
			C345.5,104,359.9,110.7,374.4,87.4z M188.3,87.7c-0.2,0.1-0.3,0.3-0.5,0.5c0.9-3.1,2.4-6,3.7-8.5l0.2-0.3c1.1-2,2.4-4.3,4.3-5.1
			C196,76.9,193.8,82.9,188.3,87.7z M213.6,82.5c-1.1-12,12.8-31.2,14.4-30.6C231.1,52.9,227.2,64.7,213.6,82.5z M241.5,81.4
			c-1.2-0.4-1.8-4.6,0.4-4.6c0.2,0,0.3,0,0.5,0.1C242.9,77.5,242.5,80.7,241.5,81.4z M292,84.2c2.7,0.9,3.2,4,3.3,6.1
			c-1.4,0-2.8-0.3-4.1-0.8C285.9,87.4,290.2,83.6,292,84.2z M275.6,92.4c1.4-4,6.7-5.9,10.6-6.7c-0.1,0.5-0.2,1.1-0.2,1.7
			c0.1,2.3,1.5,4.3,3.6,5.4c1.6,0.8,3.4,1.2,5.2,1.2C290.7,104.2,270.9,105.8,275.6,92.4z M325.3,67.6c0.6,1.3-1,4.1-1.4,3.2
			C322.9,68.8,324.4,65.8,325.3,67.6z M320.1,91.2c5.3-0.5,11,7.9,4.4,11.5C315.9,107.4,310,93.9,320.1,91.2z M357.3,74.2
			c1,0-1.4,5.9-2.3,7.4c-2.1,3.5-3.9,5.9-6.3,8.1C350,80.7,356.2,73.9,357.3,74.2z"/>
	</g>
	<g>
		<g>
			<path class="st0" d="M349.2,121.4h-13.4l-1.1,5.4H347l-0.9,4.4h-12.3l-1.4,6.5h14l-1,4.6h-19.2l5.4-25.3h18.6L349.2,121.4z"/>
			<path class="st0" d="M350.4,127.1l0.7-3.5h2.6l1.1-5.2h4.8l-1.1,5.2h3l-0.7,3.5h-3l-2.1,9.9c-0.2,0.8-0.2,1.2,0,1.4
				c0.2,0.2,0.7,0.3,1.7,0.3c0.1,0,0.3,0,0.5,0s0.3,0,0.5,0l-0.8,3.7l-2.3,0.1c-2.3,0.1-3.8-0.3-4.5-1.2c-0.4-0.6-0.5-1.4-0.3-2.6
				l2.5-11.5H350.4z"/>
			<path class="st0" d="M365.9,136.2c-0.1,0.9,0,1.5,0.3,1.9c0.5,0.7,1.5,1,3.1,1c1,0,1.8-0.1,2.4-0.4c0.6-0.3,1-0.7,1.1-1.3
				c0.1-0.5,0-1-0.4-1.3c-0.4-0.3-2-0.8-4.8-1.5c-2-0.5-3.4-1.2-4.1-2c-0.7-0.8-0.9-1.9-0.6-3.4c0.4-1.7,1.4-3.2,3-4.5
				c1.6-1.2,3.7-1.9,6.1-1.9c2.3,0,4.1,0.5,5.4,1.4c1.3,0.9,1.8,2.5,1.5,4.8h-4.9c0.1-0.6,0-1.1-0.2-1.5c-0.4-0.7-1.2-1-2.5-1
				c-1.1,0-1.9,0.2-2.4,0.5c-0.5,0.3-0.8,0.7-0.9,1.2c-0.1,0.6,0,1,0.5,1.2c0.4,0.3,2,0.7,4.8,1.4c1.8,0.5,3.2,1.2,3.9,2.1
				c0.8,0.9,1,2.1,0.7,3.5c-0.4,1.9-1.4,3.4-3,4.5c-1.6,1.2-3.9,1.8-6.8,1.8c-2.9,0-5-0.6-6.1-1.9c-1.1-1.2-1.5-2.8-1.1-4.7H365.9z"
				/>
			<path class="st0" d="M380.4,145.8l0.6,0c0.5,0,0.9,0,1.4-0.1c0.4-0.1,0.8-0.2,1.2-0.4c0.3-0.2,0.7-0.6,1.1-1.2
				c0.4-0.6,0.6-1,0.5-1.1l-2.7-19.5h5.4l1.2,13.8l6.8-13.8h5.2l-10.3,18.4c-2,3.5-3.4,5.8-4.3,6.6c-0.9,0.9-2.4,1.3-4.6,1.3
				c-0.4,0-0.8,0-1,0c-0.3,0-0.7,0-1.2-0.1L380.4,145.8z"/>
			<path class="st0" d="M415.6,134.4c-0.1,1.2,0.1,2,0.4,2.6c0.6,1,2,1.6,4.1,1.6c1.2,0,2.3-0.1,3.1-0.4c1.6-0.5,2.5-1.5,2.8-2.9
				c0.2-0.8,0-1.5-0.7-1.9c-0.6-0.4-1.7-0.8-3.2-1.2l-2.6-0.6c-2.5-0.6-4.2-1.2-5-1.9c-1.5-1.2-1.9-3-1.4-5.5
				c0.5-2.3,1.7-4.2,3.7-5.7c2-1.5,4.6-2.2,7.7-2.2c2.7,0,4.8,0.7,6.4,2.1c1.6,1.4,2.1,3.5,1.6,6.2h-5.1c0.2-1.5-0.2-2.6-1.3-3.2
				c-0.7-0.4-1.7-0.6-2.9-0.6c-1.4,0-2.5,0.3-3.4,0.8c-0.9,0.5-1.5,1.3-1.7,2.3c-0.2,0.9,0.1,1.6,0.8,2c0.4,0.3,1.5,0.6,3.1,1l4.1,1
				c1.8,0.5,3.1,1.1,3.9,1.8c1.3,1.2,1.6,2.9,1.2,5.2c-0.5,2.3-1.8,4.2-3.9,5.8c-2.1,1.5-4.8,2.3-8,2.3c-3.3,0-5.7-0.8-7.3-2.3
				c-1.6-1.5-2.1-3.6-1.5-6.2H415.6z"/>
			<path class="st0" d="M452.6,125.4c0.4,0.7,0.5,1.4,0.5,2.2c0,0.7-0.2,1.9-0.6,3.6l-2.3,11h-5l2.4-11.4c0.2-1,0.2-1.8,0-2.4
				c-0.3-0.9-1-1.3-2.3-1.3c-1.3,0-2.4,0.4-3.2,1.3c-0.9,0.9-1.5,2.1-1.8,3.7l-2.1,10.1h-4.9l5.4-25.2h4.9l-1.9,8.9
				c0.9-1.1,1.9-1.8,2.9-2.3c1-0.4,2.1-0.6,3.1-0.6c1.2,0,2.2,0.2,3,0.6C451.5,124,452.1,124.6,452.6,125.4z"/>
			<path class="st0" d="M463,142.8c-3.2,0-5.4-1-6.6-2.9s-1.5-4.3-0.9-7.1c0.6-2.7,1.9-5,3.9-7c2-2,4.6-3,7.8-3s5.4,1,6.6,3
				c1.2,2,1.4,4.3,0.9,7c-0.6,2.7-1.9,5.1-3.9,7.1S466.2,142.8,463,142.8z M469.5,132.9c0.4-1.9,0.3-3.3-0.2-4.3
				c-0.6-1-1.5-1.5-3-1.5c-1.4,0-2.6,0.5-3.6,1.5c-1,1-1.7,2.5-2.1,4.3c-0.4,1.9-0.3,3.3,0.2,4.3s1.5,1.5,3,1.5
				c1.4,0,2.6-0.5,3.6-1.5C468.4,136.2,469.1,134.7,469.5,132.9z"/>
			<path class="st0" d="M496.2,132.6c-0.7,3.3-2,5.8-3.8,7.5c-1.8,1.7-3.9,2.6-6.3,2.6c-1.5,0-2.6-0.4-3.5-1.1
				c-0.5-0.4-0.9-1-1.2-1.8l-2.1,9.8h-4.8l5.5-26.1h4.7l-0.6,2.8c0.7-0.8,1.4-1.5,2.1-1.9c1.3-0.8,2.6-1.3,4.1-1.3
				c2.2,0,3.9,0.8,5,2.4C496.6,127.1,496.8,129.5,496.2,132.6z M488,127.3c-1.8,0-3.2,0.8-4.2,2.5c-0.5,0.9-0.9,2-1.2,3.4
				c-0.5,2.2-0.2,3.7,0.8,4.6c0.6,0.5,1.3,0.8,2.3,0.8c1.4,0,2.5-0.5,3.5-1.6c0.9-1.1,1.6-2.5,2-4.2c0.3-1.4,0.3-2.7-0.2-3.8
				C490.5,127.9,489.5,127.3,488,127.3z"/>
		</g>
	</g>
</g>
</svg>
