<?xml version="1.0" encoding="utf-8"?>
<!-- Generator: Adobe Illustrator 19.1.0, SVG Export Plug-In . SVG Version: 6.00 Build 0)  -->
<svg version="1.1" id="Layer_1" xmlns="http://www.w3.org/2000/svg" xmlns:xlink="http://www.w3.org/1999/xlink" x="0px" y="0px"
	 viewBox="0 0 185 100" style="enable-background:new 0 0 185 100;" xml:space="preserve">
<style type="text/css">
	.st0{fill:#F05B71;}
	.st1{fill:#808184;}
	.st2{fill:#62B799;}
</style>
<g>
	<g>
		<path class="st0" d="M18,48.7c0.1,0.6,0.2,1.3,0.4,1.9c0.4,0.4,2.6,2.7,5.7,2.7c0,0,0.1,0,0.1,0c2.6-0.1,5.2-1.7,7.7-4.8
			c-0.2-0.7-0.5-1.3-0.9-1.9c-0.1-0.2-0.3-0.4-0.4-0.6c-1.7,2.7-4.2,3.5-6.6,3.5c-2.5,0-4.9-0.9-5.8-1.4C18.1,48.4,18,48.6,18,48.7z
			"/>
		<path class="st0" d="M23,42.7C23,42.7,23,42.7,23,42.7C23,42.7,23,42.7,23,42.7c0.5,0,1.1,0.2,1.7,0.5c-0.5-0.6-1-1.2-1.5-1.7
			C23.2,41.9,23.1,42.3,23,42.7z"/>
		<path class="st0" d="M23.3,43.7c0.3,0.6,1.1,2.2,2.4,2c0.3,0,0.4-0.1,0.4-0.1c0-0.2-0.5-0.8-1.5-1.3C24.1,44,23.6,43.8,23.3,43.7z
			"/>
		<path class="st0" d="M18.5,47.1c0.6,0.3,1.9,0.9,3.6,1.1c-1-1.7-0.3-5.1,0.2-6.9C20.2,43.1,19,45.5,18.5,47.1z"/>
		<path class="st0" d="M27,47.8c1.2-0.6,2.2-1.5,2.9-2.8c-1.7-2-4-3.1-5.4-3.7c1.4,1.5,3.2,3.9,2.8,5.7C27.2,47.3,27.1,47.6,27,47.8
			z"/>
		<path class="st0" d="M40.7,36.4c2.7,2.4,4.2,4.5,4.9,6c0-0.4,0.1-0.8,0.1-1.2c-3.4-8-11.4-13.7-20.7-13.7c-0.6,0-1.2,0-1.8,0.1
			C29.3,29.3,35.8,32.1,40.7,36.4z"/>
		<path class="st0" d="M31.5,39.5c-0.1,0-0.1,0-0.2,0c-2.7-0.6-5.1-0.4-7.2,0.6c1.7,0.6,5.5,2.2,7.7,5.9c1.6,2.8,2.1,6.1,1.3,9.9
			c3.6-2.9,5.1-6.5,4.3-10.9c0-0.1,0-0.1,0-0.2C35.9,42.7,33.9,41,31.5,39.5z"/>
		<path class="st0" d="M28.7,65.8c-2.3-1.4-4.1-3-5.6-4.6c0,0-0.1-0.1-0.1-0.1c-3-3.3-4.6-6.8-5.5-10c0-0.1,0-0.1,0-0.2
			c-0.2-0.7-0.3-1.4-0.5-2.1c0,0,0,0,0-0.1c-0.1-0.7-0.2-1.3-0.3-1.9c-0.4-4.4,0.3-8.1,0.7-10c-2.2,1.2-4.1,2.5-5.7,3.7
			c-0.1,1-0.2,5,1.4,9.7c1.7,4.9,5.6,11.7,15,15.9C28.3,66.1,28.5,66,28.7,65.8z"/>
		<path class="st0" d="M20.7,69.2c0.6-0.2,3.1-0.9,6.2-2.4c-9.2-4.4-13.1-11.1-14.8-16.2c-1.3-4-1.5-7.4-1.5-9.1
			c-2.4,2-4,3.8-4.4,4.3C6.2,50.8,7,57.2,10.1,63.9C10.6,64.3,14.1,67.3,20.7,69.2z"/>
		<path class="st0" d="M6.3,44.2c0.9-1,2.4-2.5,4.5-4.1c0.1-0.1,0.1-0.2,0.2-0.2c1.9-1.5,4.2-3,6.9-4.3c0.1-0.1,0.2-0.1,0.3-0.1
			c0.4-0.2,0.7-0.3,1.1-0.5c0.1-0.1,0.2-0.2,0.4-0.2c3.5-1.5,7.7-2.6,12.2-2.8c-3.7-1.8-7.6-3.1-11.3-4c-5.2,1-9.8,3.8-13,7.8
			C7.2,37,6.5,40.1,6.3,44.2z"/>
		<path class="st0" d="M9.2,64.4C9.2,64.4,9.2,64.3,9.2,64.4c-3.3-7-4.1-13.5-4.1-18.2c0-3.4,0.4-6.2,0.8-8.3
			C3.8,41.4,2.5,45.6,2.5,50c0,7.1,3.3,13.4,8.4,17.5C10.3,66.5,9.7,65.4,9.2,64.4z"/>
		<path class="st0" d="M23.1,47.9c0.4,0.4,1,0.4,1.9,0.1c0.8-0.3,1.2-0.7,1.3-1.2c0-0.1,0-0.1,0-0.2c-0.1,0.1-0.3,0.1-0.5,0.1
			c-0.1,0-0.2,0-0.3,0c-1.4,0-2.4-1.2-2.8-2.1C22.5,46.1,22.5,47.4,23.1,47.9z"/>
		<path class="st0" d="M46.5,43.3c0,0.3-0.1,0.6-0.1,0.9c0,0,0,0.1,0,0.1c-0.7,4.2-2.2,7.7-4.1,10.6c0,0.1-0.1,0.2-0.1,0.2
			c-2.5,3.9-5.7,6.9-8.6,8.9c-4.3,3.1-8.4,4.7-10.8,5.5c3.2,0.7,7.1,1.1,11.6,0.9C42.1,67,47.5,59.1,47.5,50
			C47.5,47.7,47.2,45.4,46.5,43.3z"/>
		<path class="st0" d="M11.3,66.1c0.6,1,1.2,2,1.8,3c3.5,2.2,7.5,3.4,11.9,3.4c2.2,0,4.3-0.3,6.3-0.9C20.7,71.5,14.2,68.1,11.3,66.1
			z"/>
		<path class="st0" d="M31.3,57.2c0.2-0.1,0.4-0.2,0.6-0.4c0.7-2.6,0.8-5,0.4-7.2c-2.5,3-5.2,4.6-8,4.7c0,0-0.1,0-0.1,0
			c-2.2,0-4-1-5.1-1.8c1,2.9,2.5,5.5,4.6,7.7C24.5,60,28,59.1,31.3,57.2z"/>
		<path class="st0" d="M18.6,36.3c-0.3,1-1.4,5-1,10c0.8-2,2.2-4.7,4.9-6.5c1.8-1.2,4-1.8,6.4-1.7c-4.2-1.9-8.2-2.4-9.1-2.4
			C19.4,35.9,19,36.1,18.6,36.3z"/>
		<path class="st0" d="M32.9,63.3c3.5-2.5,6.3-5.3,8.3-8.5c-0.4-3-1.3-5.7-2.6-8c0.2,5-2.6,8.5-5.9,10.7c-0.1,0.1-0.2,0.2-0.3,0.2
			c-3.1,2-6.5,3.1-8,3.5c1.5,1.5,3.3,2.9,5.4,4.2C30.8,64.7,31.8,64,32.9,63.3z"/>
		<path class="st0" d="M45.3,44.2c-0.2-0.6-1.4-3.6-5.4-7.1c-1.8-1.6-3.9-3-6.1-4.2c-0.1,0-0.1,0-0.2,0c-4.4-0.1-8.4,0.7-11.9,2
			c2,0.3,5,1,8.3,2.6c4.7,2.3,10.4,6.9,12,15.8C43.6,50.6,44.7,47.5,45.3,44.2z"/>
	</g>
	<g>
		<path class="st1" d="M54.6,71.6c0.1-0.7,0.1-2,0.1-3.8v-2c0-0.8,0-1.6-0.1-2.2c0-0.4-0.1-0.6-0.1-0.6c-0.1-0.1-0.2-0.1-0.6-0.2
			l-0.6-0.1v-0.4c0.8,0,1.3,0,1.6,0l1.9,0l1.5,0c0.6,0,1.3,0.1,1.9,0.2s1.2,0.4,1.8,0.8s0.9,0.9,1.2,1.5c0.3,0.6,0.4,1.3,0.4,2.1
			c0,1.6-0.5,2.9-1.6,3.9c-1.1,1-2.5,1.6-4.2,1.6l-0.9,0c-0.8,0-1.4,0-1.6,0c-0.4,0-0.9,0-1.4,0.1V72L54.6,71.6z M56.1,71.6
			c0.6,0.1,1.2,0.1,1.7,0.1c1.3,0,2.3-0.3,3.1-1c0.9-0.8,1.3-2,1.3-3.6c0-1.4-0.4-2.4-1.1-3.1c-0.7-0.7-1.8-1.1-3.2-1.1
			c-0.5,0-1.1,0-1.8,0.1C56,63.5,56,64,56,64.6v4.6C56,70.1,56,70.8,56.1,71.6z"/>
		<path class="st1" d="M73.1,67.5v1.7l0,1c0,0.6,0,1.1,0,1.4c0.7,0.1,1.4,0.1,2.2,0.1c0.5,0,1,0,1.3-0.1c0.2,0,0.5-0.1,0.7-0.2
			c0.1-0.4,0.2-0.9,0.4-1.5h0.5c-0.1,1-0.2,1.7-0.2,2.1l0,0.3c-0.5,0-1.1,0.1-1.6,0.1l-1.1,0c-1.2,0-2.1,0-2.7,0c-0.5,0-1.3,0-2.2,0
			v-0.4h0.2c0.4,0,0.7,0,0.8-0.1c0.1-0.1,0.2-0.3,0.2-0.6c0-0.3,0.1-0.9,0.1-2v-3.9c0-0.6,0-1.2,0-1.6c0-0.4-0.1-0.6-0.1-0.7
			c0-0.1-0.1-0.1-0.2-0.2c-0.1,0-0.3-0.1-0.6-0.1l-0.5-0.1v-0.4h0.8l0.7,0c0.4,0,0.7,0,0.9,0l2.7,0l1.3,0c0.4,0,0.9,0,1.3,0
			c-0.2,0.6-0.3,1.3-0.3,2.2h-0.5c0-0.5,0-0.9-0.1-1.3c-0.6-0.2-1.2-0.3-2-0.3c-0.6,0-1.3,0-2,0.1c0,0.4,0,0.9,0,1.3l0,1.1v1.4
			c0.5,0,0.9,0,1.2,0c1.1,0,1.7,0,1.9-0.1c0.1-0.1,0.2-0.3,0.2-0.7v-0.5h0.5c0,0.7,0,1.3,0,1.7c0,0.4,0,1,0,1.6h-0.5v-0.4
			c0-0.4-0.1-0.7-0.3-0.8c-0.2-0.1-0.8-0.2-1.9-0.2C73.9,67.5,73.5,67.5,73.1,67.5z"/>
		<path class="st1" d="M91.2,62.8c-0.1,0.5-0.2,1.1-0.2,1.9h-0.5v-0.6c0-0.4,0-0.6-0.1-0.7S90,63.2,89.6,63
			c-0.4-0.1-0.9-0.2-1.3-0.2c-0.7,0-1.3,0.2-1.8,0.6c-0.4,0.4-0.6,0.9-0.6,1.5c0,0.4,0.1,0.7,0.3,1c0.2,0.3,0.4,0.5,0.7,0.6
			c0.3,0.1,0.9,0.2,1.9,0.3c1,0.1,1.6,0.2,2,0.4c0.3,0.2,0.6,0.4,0.8,0.7c0.2,0.3,0.3,0.7,0.3,1.2c0,0.9-0.4,1.8-1.2,2.4
			s-1.8,1-3.1,1c-0.4,0-0.9,0-1.4-0.1c-0.5-0.1-0.9-0.2-1.4-0.4c0.1-0.6,0.1-1.3,0.1-2.2h0.5v0.4c0,0.5,0,0.7,0.1,0.8
			c0,0.1,0.2,0.2,0.3,0.3c0.3,0.2,0.6,0.3,0.9,0.4c0.4,0.1,0.7,0.1,1.2,0.1c0.9,0,1.6-0.2,2.1-0.6s0.7-0.9,0.7-1.6
			c0-0.4-0.1-0.7-0.2-1c-0.2-0.3-0.4-0.5-0.7-0.6s-0.8-0.2-1.6-0.3c-1.1-0.1-1.8-0.2-2.2-0.4c-0.4-0.2-0.7-0.4-0.9-0.8
			c-0.2-0.4-0.3-0.8-0.3-1.4c0-0.9,0.3-1.7,1-2.2s1.6-0.9,2.7-0.9c0.5,0,0.9,0.1,1.4,0.2C90.3,62.4,90.8,62.6,91.2,62.8z"/>
		<path class="st1" d="M98.2,71.9h0.4c0.4,0,0.7-0.1,0.8-0.3c0.1-0.2,0.1-1.2,0.1-3v-2.4c0-1.9,0-2.9-0.1-3.1
			c-0.1-0.2-0.3-0.3-0.7-0.3h-0.6v-0.4c0.8,0,1.5,0,2.3,0c0.6,0,1.2,0,1.7,0v0.4h-0.5c-0.3,0-0.5,0-0.6,0.1
			c-0.1,0.1-0.1,0.3-0.1,0.6c0,0.5,0,1.4,0,2.7v2.4c0,1.8,0,2.8,0.1,3c0.1,0.2,0.3,0.3,0.8,0.3h0.5v0.4c-0.6,0-1.2,0-1.9,0
			c-0.8,0-1.5,0-2.1,0V71.9z"/>
		<path class="st1" d="M118.5,69c-0.1,0.4-0.1,0.8-0.1,1.2c0,0.4,0,0.9,0.1,1.5c-0.6,0.2-1.3,0.4-2.1,0.6c-0.8,0.1-1.5,0.2-2.3,0.2
			c-1.1,0-2.1-0.2-2.9-0.7c-0.8-0.4-1.5-1-1.9-1.8c-0.4-0.8-0.7-1.6-0.7-2.6c0-1,0.2-1.9,0.7-2.7s1.2-1.4,2-1.8
			c0.9-0.4,2-0.7,3.3-0.7c0.5,0,1,0,1.5,0.1c0.5,0.1,1,0.2,1.8,0.4l0.6,0.2c-0.1,0.5-0.2,1.2-0.3,2.1h-0.4v-0.5c0-0.5,0-0.7-0.1-0.8
			c-0.1-0.1-0.5-0.3-1.1-0.6c-0.6-0.2-1.3-0.3-2.1-0.3c-1.4,0-2.4,0.4-3.2,1.1c-0.8,0.8-1.2,1.9-1.2,3.2c0,1.3,0.4,2.3,1.1,3.2
			c0.8,1,2,1.5,3.5,1.5c0.8,0,1.6-0.2,2.5-0.5c0-0.4,0-0.8,0-1.3c0-0.6,0-0.9,0-1c0-0.1-0.1-0.1-0.1-0.2c0,0-0.3-0.1-0.7-0.1
			l-0.8-0.1v-0.4c1.1,0,1.9,0.1,2.4,0.1c0.4,0,0.8,0,1.2-0.1v0.4L118.5,69z"/>
		<path class="st1" d="M127.5,63.9v4.9c0,1.1,0,1.9,0.1,2.3c0,0.3,0.1,0.5,0.2,0.6c0.1,0.1,0.3,0.1,0.7,0.2l0.5,0v0.4
			c-0.5,0-1,0-1.4,0c-0.3,0-0.9,0-2,0v-0.4h0.5c0.3,0,0.5,0,0.6-0.1c0.1-0.1,0.2-0.3,0.2-0.5c0.1-0.5,0.1-1.2,0.1-2.1v-3.5
			c0-0.7,0-1.3,0-1.9c0-0.3,0-0.5-0.1-0.6c-0.1-0.1-0.2-0.2-0.3-0.3c-0.1-0.1-0.3-0.1-0.5-0.1h-0.4v-0.4c0.6,0,1,0,1.4,0
			c0.3,0,0.7,0,1.1,0c0.5,0.6,0.9,1.1,1.3,1.7c0.4,0.5,0.8,1.1,1.3,1.6l2.4,3c0.9,1.1,1.5,1.8,1.9,2.2v-4.5c0-1.9,0-2.9-0.1-3.1
			c-0.1-0.2-0.3-0.3-0.8-0.3l-0.5,0v-0.4c0.8,0,1.3,0,1.8,0c0.4,0,1,0,1.7,0v0.4h-0.5c-0.4,0-0.7,0.1-0.8,0.4c0,0.2-0.1,1.2-0.1,3.1
			v3.2c0,0.9,0,1.9,0.1,3.1c-0.6-0.1-1-0.2-1.1-0.2s-0.2-0.1-0.3-0.2c-0.5-0.6-1.1-1.2-1.6-1.9L127.5,63.9z"/>
		<path class="st1" d="M149.6,62.8c-0.1,0.5-0.2,1.1-0.2,1.9h-0.5v-0.6c0-0.4,0-0.6-0.1-0.7c-0.1-0.1-0.4-0.3-0.8-0.4
			c-0.4-0.1-0.9-0.2-1.3-0.2c-0.7,0-1.3,0.2-1.8,0.6c-0.4,0.4-0.6,0.9-0.6,1.5c0,0.4,0.1,0.7,0.3,1c0.2,0.3,0.4,0.5,0.7,0.6
			c0.3,0.1,0.9,0.2,1.9,0.3c1,0.1,1.6,0.2,2,0.4c0.3,0.2,0.6,0.4,0.8,0.7s0.3,0.7,0.3,1.2c0,0.9-0.4,1.8-1.2,2.4
			c-0.8,0.7-1.8,1-3.1,1c-0.4,0-0.9,0-1.4-0.1c-0.5-0.1-0.9-0.2-1.4-0.4c0.1-0.6,0.1-1.3,0.1-2.2h0.5v0.4c0,0.5,0,0.7,0.1,0.8
			c0,0.1,0.2,0.2,0.3,0.3c0.3,0.2,0.6,0.3,0.9,0.4s0.7,0.1,1.2,0.1c0.9,0,1.6-0.2,2.1-0.6c0.5-0.4,0.7-0.9,0.7-1.6
			c0-0.4-0.1-0.7-0.2-1c-0.2-0.3-0.4-0.5-0.7-0.6c-0.3-0.1-0.8-0.2-1.6-0.3c-1.1-0.1-1.8-0.2-2.2-0.4s-0.7-0.4-0.9-0.8
			c-0.2-0.4-0.3-0.8-0.3-1.4c0-0.9,0.3-1.7,1-2.2s1.6-0.9,2.7-0.9c0.5,0,0.9,0.1,1.4,0.2C148.7,62.4,149.2,62.6,149.6,62.8z"/>
	</g>
	<path class="st2" d="M182.5,45.5l-0.3-0.2c-6.6,9.4-12.2,6.9-12.3,2.4c1.5-1.3,2.6-2.6,3.8-4.6c0,0,1.9-3.6,1-4.5
		c-0.3-0.3-0.7-0.3-1.2,0c-0.1,0-0.1,0.1-0.2,0.1c0,0-3.3,1.8-4.7,6.2c-0.4,1.1-0.5,2.2-0.6,3.3c-0.1,0-0.1,0.1-0.2,0.1
		c-1.8,0.8-4.2,1.4-5.8,0.5c0-1.7-0.4-3.9-1.7-6.7c-0.3-0.6-0.6-1.1-0.9-1.7c-0.4-0.7-0.8-1.4-1.1-2c0.6-0.8,1-1.6,1-2.4
		c0-0.5-0.7-2.2-2.1-1.8c-1.4,0.4-1,3.1-1,3.1c0.1,0.7,0.3,1.3,0.5,1.9c0,0-0.1,0.1-0.1,0.1c-3.4,3.9-11.4,8.3-11.8,7.4
		c-0.1-1.2-0.6-3.4-2.2-3.6c-0.3,0-6-1.3-9.4,3.7c-0.1,0.2-5.6,5-7.9,3.7c-1.1-0.6,2.1-4.3,0.3-7c-1-1.5-2.8,0.6-7-0.4
		c0.5-0.6,1.6-4.7-1.3-3.6c-1.8,0.7,0,3.8,0.2,4c-0.6,1.1-1.5,2.5-2.7,3.7c-1.9,2.1-9.4,7-10.2-2.8c7.2-9,9.1-15.5,7.6-16.8
		c-0.2-0.2-0.7-0.4-1.4-0.1c0,0-3,1.1-6.8,9.6c-1.1,2.6-1.7,5.9-1.6,8.8c-5.3,6.7-8.5,6.4-10,5.1c-0.9-0.8-1-2.6-0.8-4.1
		c0.3-0.3,0.7-0.6,1-0.9c3-2.6,4.3-6.2,3.9-7.6c-0.2-0.5-0.5-0.7-0.7-0.7c-0.1,0-0.2,0-0.4,0c0,0-4.2,1.7-5.7,9.8
		c-1.8,1.5-5.8,4.4-6.4-2.9c-0.7-8.4-9.1,1.4-11.3,4.1c-0.2,0.2-0.4,0.4-0.6,0.6c0-0.1,1.9-5.1,2.1-7.7c0.1-2.1-1.3-2.8-1.3-2.8
		c-1.2-0.7-3.1,0.2-6.2,2.7c-0.8,0.7-2,1.8-3.2,3.1l4-6.4L65,37.4L53.5,55.7l1.5,0.8l6.1-8c1.9-2.1,4.1-5,5.5-6.1
		c3.3-2.6,4.5-3,5.3-2.7c1.5,0.6-3,11-3.4,12.2l1.6,0.5l0.1,0.1c0,0,0,0,0,0c0,0,1.2-1.4,1.5-1.8c0.5-0.5,0.9-1.1,1.4-1.6
		c4.5-5.1,8.6-7.9,8.7-4.6c0,1.8-0.5,5.4,1.8,6.7c0.7,0.4,4,0.4,6.4-2.5c0.1,1.4,0.1,2.6,1.3,3.7c3.9,3.7,7.7-1,11.4-5.2
		c0.1,1.2,0.4,2.3,1,3.3c0.8,1.6,2.4,2.7,4.2,2.5c5.2-0.7,8.8-5.8,10.5-9c0.7,0.3,1.6,0.4,3,0.4c6.9-0.9,0.6,5.4,2.6,7.9
		c1.3,1.7,7.5-2.3,8.7-3.3c-0.7,4,2.4,4.8,2.4,4.8c1.4,0.6,3.3,0.5,5.1-0.4c1.2-0.6,3.8-2.1,4.6-4.7c3.7-0.8,9.4-4.9,12.4-8.7
		c0.2,0.5,0.5,0.9,0.8,1.4c0.3,0.5,0.6,1,0.8,1.5c0.5,1.1,1.2,2.9,1.5,4.7c0,0,0,0,0,0c-2.1-1.5-4.5-1.5-5.6-0.9
		c-1.4,0.8-2.1,2.7-1.7,4.3c0.9,4.1,6.3,4.7,8.9-0.4c2.7,0.3,4.9-0.7,6.3-1.6C168.5,53.6,175.5,56.8,182.5,45.5z M92.2,45.7
		c-0.1,0.1-0.2,0.1-0.3,0.2c0.4-1.5,1.1-2.9,1.8-4.1l0.1-0.1c0.5-1,1.2-2.1,2.1-2.5C95.9,40.4,94.8,43.3,92.2,45.7z M104.5,43.1
		c-0.5-5.8,6.2-15.1,7-14.9C113,28.8,111.1,34.5,104.5,43.1z M118,42.6c-0.6-0.2-0.9-2.2,0.2-2.2c0.1,0,0.2,0,0.2,0.1
		C118.7,40.7,118.5,42.2,118,42.6z M142.5,44c1.3,0.4,1.6,1.9,1.6,3c-0.7,0-1.4-0.1-2-0.4C139.6,45.5,141.6,43.7,142.5,44z
		 M134.5,48c0.7-1.9,3.2-2.9,5.1-3.3c-0.1,0.3-0.1,0.5-0.1,0.8c0,1.1,0.7,2.1,1.7,2.6c0.8,0.4,1.7,0.6,2.5,0.6
		C141.9,53.7,132.3,54.5,134.5,48z M158.7,35.9c0.3,0.6-0.5,2-0.7,1.5C157.5,36.5,158.3,35,158.7,35.9z M156.2,47.4
		c2.6-0.2,5.3,3.8,2.1,5.6C154.1,55.2,151.3,48.7,156.2,47.4z M174.2,39.1c0.5,0-0.7,2.9-1.1,3.6c-1,1.7-1.9,2.9-3.1,3.9
		C170.7,42.3,173.7,38.9,174.2,39.1z"/>
</g>
</svg>
