<?xml version="1.0" encoding="utf-8"?>
<!-- Generator: Adobe Illustrator 19.1.0, SVG Export Plug-In . SVG Version: 6.00 Build 0)  -->
<svg version="1.1" id="Layer_1" xmlns="http://www.w3.org/2000/svg" xmlns:xlink="http://www.w3.org/1999/xlink" x="0px" y="0px"
	 viewBox="0 0 185 100" style="enable-background:new 0 0 185 100;" xml:space="preserve">
<style type="text/css">
	.st0{fill:#F05B71;}
	.st1{fill:#808184;}
	.st2{fill:#62B799;}
	.st3{font-family:'Helvetica-BoldOblique';}
	.st4{font-size:12.1905px;}
	.st5{fill:none;stroke:#F05B71;stroke-width:0.5;stroke-miterlimit:10;}
</style>
<g>
	<g>
		<g>
			<path class="st0" d="M18,37.5c0.1,0.6,0.2,1.3,0.4,1.9c0.4,0.4,2.6,2.7,5.7,2.7c0,0,0.1,0,0.1,0c2.6-0.1,5.2-1.7,7.7-4.8
				c-0.2-0.7-0.5-1.3-0.9-1.9c-0.1-0.2-0.3-0.4-0.4-0.6c-1.7,2.7-4.2,3.5-6.6,3.5c-2.5,0-4.9-0.9-5.8-1.4C18.1,37.2,18,37.4,18,37.5
				z"/>
			<path class="st0" d="M23,31.4C23,31.4,23,31.4,23,31.4C23,31.4,23,31.4,23,31.4c0.5,0,1.1,0.2,1.7,0.5c-0.5-0.6-1-1.2-1.5-1.7
				C23.2,30.7,23.1,31,23,31.4z"/>
			<path class="st0" d="M23.3,32.5c0.3,0.6,1.1,2.2,2.4,2c0.3,0,0.4-0.1,0.4-0.1c0-0.2-0.5-0.8-1.5-1.3
				C24.1,32.7,23.6,32.6,23.3,32.5z"/>
			<path class="st0" d="M18.5,35.9c0.6,0.3,1.9,0.9,3.6,1.1c-1-1.7-0.3-5.1,0.2-6.9C20.2,31.8,19,34.2,18.5,35.9z"/>
			<path class="st0" d="M27,36.6c1.2-0.6,2.2-1.5,2.9-2.8c-1.7-2-4-3.1-5.4-3.7c1.4,1.5,3.2,3.9,2.8,5.7
				C27.2,36.1,27.1,36.4,27,36.6z"/>
			<path class="st0" d="M40.7,25.2c2.7,2.4,4.2,4.5,4.9,6c0-0.4,0.1-0.8,0.1-1.2c-3.4-8-11.4-13.7-20.7-13.7c-0.6,0-1.2,0-1.8,0.1
				C29.3,18.1,35.8,20.9,40.7,25.2z"/>
			<path class="st0" d="M31.5,28.3c-0.1,0-0.1,0-0.2,0c-2.7-0.6-5.1-0.4-7.2,0.6c1.7,0.6,5.5,2.2,7.7,5.9c1.6,2.8,2.1,6.1,1.3,9.9
				c3.6-2.9,5.1-6.5,4.3-10.9c0-0.1,0-0.1,0-0.2C35.9,31.5,33.9,29.7,31.5,28.3z"/>
			<path class="st0" d="M28.7,54.6c-2.3-1.4-4.1-3-5.6-4.6c0,0-0.1-0.1-0.1-0.1c-3-3.3-4.6-6.8-5.5-10c0-0.1,0-0.1,0-0.2
				c-0.2-0.7-0.3-1.4-0.5-2.1c0,0,0,0,0-0.1c-0.1-0.7-0.2-1.3-0.3-1.9c-0.4-4.4,0.3-8.1,0.7-10c-2.2,1.2-4.1,2.5-5.7,3.7
				c-0.1,1-0.2,5,1.4,9.7c1.7,4.9,5.6,11.7,15,15.9C28.3,54.8,28.5,54.7,28.7,54.6z"/>
			<path class="st0" d="M20.7,57.9c0.6-0.2,3.1-0.9,6.2-2.4c-9.2-4.4-13.1-11.1-14.8-16.2c-1.3-4-1.5-7.4-1.5-9.1
				c-2.4,2-4,3.8-4.4,4.3C6.2,39.6,7,46,10.1,52.6C10.6,53.1,14.1,56.1,20.7,57.9z"/>
			<path class="st0" d="M6.3,32.9c0.9-1,2.4-2.5,4.5-4.1c0.1-0.1,0.1-0.2,0.2-0.2c1.9-1.5,4.2-3,6.9-4.3c0.1-0.1,0.2-0.1,0.3-0.1
				c0.4-0.2,0.7-0.3,1.1-0.5c0.1-0.1,0.2-0.2,0.4-0.2c3.5-1.5,7.7-2.6,12.2-2.8c-3.7-1.8-7.6-3.1-11.3-4c-5.2,1-9.8,3.8-13,7.8
				C7.2,25.8,6.5,28.8,6.3,32.9z"/>
			<path class="st0" d="M9.2,53.1C9.2,53.1,9.2,53.1,9.2,53.1c-3.3-7-4.1-13.5-4.1-18.2c0-3.4,0.4-6.2,0.8-8.3
				c-2.2,3.5-3.5,7.6-3.5,12.1c0,7.1,3.3,13.4,8.4,17.5C10.3,55.3,9.7,54.2,9.2,53.1z"/>
			<path class="st0" d="M23.1,36.7c0.4,0.4,1,0.4,1.9,0.1c0.8-0.3,1.2-0.7,1.3-1.2c0-0.1,0-0.1,0-0.2c-0.1,0.1-0.3,0.1-0.5,0.1
				c-0.1,0-0.2,0-0.3,0c-1.4,0-2.4-1.2-2.8-2.1C22.5,34.9,22.5,36.2,23.1,36.7z"/>
			<path class="st0" d="M46.5,32c0,0.3-0.1,0.6-0.1,0.9c0,0,0,0.1,0,0.1c-0.7,4.2-2.2,7.7-4.1,10.6c0,0.1-0.1,0.2-0.1,0.2
				c-2.5,3.9-5.7,6.9-8.6,8.9c-4.3,3.1-8.4,4.7-10.8,5.5c3.2,0.7,7.1,1.1,11.6,0.9c7.8-3.5,13.3-11.4,13.3-20.5
				C47.5,36.4,47.2,34.2,46.5,32z"/>
			<path class="st0" d="M11.3,54.8c0.6,1,1.2,2,1.8,3c3.5,2.2,7.5,3.4,11.9,3.4c2.2,0,4.3-0.3,6.3-0.9
				C20.7,60.3,14.2,56.9,11.3,54.8z"/>
			<path class="st0" d="M31.3,45.9c0.2-0.1,0.4-0.2,0.6-0.4c0.7-2.6,0.8-5,0.4-7.2c-2.5,3-5.2,4.6-8,4.7c0,0-0.1,0-0.1,0
				c-2.2,0-4-1-5.1-1.8c1,2.9,2.5,5.5,4.6,7.7C24.5,48.8,28,47.9,31.3,45.9z"/>
			<path class="st0" d="M18.6,25c-0.3,1-1.4,5-1,10c0.8-2,2.2-4.7,4.9-6.5c1.8-1.2,4-1.8,6.4-1.7c-4.2-1.9-8.2-2.4-9.1-2.4
				C19.4,24.7,19,24.8,18.6,25z"/>
			<path class="st0" d="M32.9,52c3.5-2.5,6.3-5.3,8.3-8.5c-0.4-3-1.3-5.7-2.6-8c0.2,5-2.6,8.5-5.9,10.7c-0.1,0.1-0.2,0.2-0.3,0.2
				c-3.1,2-6.5,3.1-8,3.5c1.5,1.5,3.3,2.9,5.4,4.2C30.8,53.4,31.8,52.8,32.9,52z"/>
			<path class="st0" d="M45.3,33c-0.2-0.6-1.4-3.6-5.4-7.1c-1.8-1.6-3.9-3-6.1-4.2c-0.1,0-0.1,0-0.2,0c-4.4-0.1-8.4,0.7-11.9,2
				c2,0.3,5,1,8.3,2.6c4.7,2.3,10.4,6.9,12,15.8C43.6,39.3,44.7,36.3,45.3,33z"/>
		</g>
		<g>
			<path class="st1" d="M54.6,60.4c0.1-0.7,0.1-2,0.1-3.8v-2c0-0.8,0-1.6-0.1-2.2c0-0.4-0.1-0.6-0.1-0.6c-0.1-0.1-0.2-0.1-0.6-0.2
				l-0.6-0.1v-0.4c0.8,0,1.3,0,1.6,0l1.9,0l1.5,0c0.6,0,1.3,0.1,1.9,0.2s1.2,0.4,1.8,0.8c0.5,0.4,0.9,0.9,1.2,1.5
				c0.3,0.6,0.4,1.3,0.4,2.1c0,1.6-0.5,2.9-1.6,3.9c-1.1,1-2.5,1.6-4.2,1.6l-0.9,0c-0.8,0-1.4,0-1.6,0c-0.4,0-0.9,0-1.4,0.1v-0.3
				L54.6,60.4z M56.1,60.4c0.6,0.1,1.2,0.1,1.7,0.1c1.3,0,2.3-0.3,3.1-1c0.9-0.8,1.3-2,1.3-3.6c0-1.4-0.4-2.4-1.1-3.1
				c-0.7-0.7-1.8-1.1-3.2-1.1c-0.5,0-1.1,0-1.8,0.1c-0.1,0.4-0.1,1-0.1,1.5V58C56,58.8,56,59.6,56.1,60.4z"/>
			<path class="st1" d="M73.1,56.3V58l0,1c0,0.6,0,1.1,0,1.4c0.7,0.1,1.4,0.1,2.2,0.1c0.5,0,1,0,1.3-0.1c0.2,0,0.5-0.1,0.7-0.2
				c0.1-0.4,0.2-0.9,0.4-1.5h0.5c-0.1,1-0.2,1.7-0.2,2.1l0,0.3c-0.5,0-1.1,0.1-1.6,0.1l-1.1,0c-1.2,0-2.1,0-2.7,0
				c-0.5,0-1.3,0-2.2,0v-0.4h0.2c0.4,0,0.7,0,0.8-0.1c0.1-0.1,0.2-0.3,0.2-0.6c0-0.3,0.1-0.9,0.1-2v-3.9c0-0.6,0-1.2,0-1.6
				c0-0.4-0.1-0.6-0.1-0.7c0-0.1-0.1-0.1-0.2-0.2c-0.1,0-0.3-0.1-0.6-0.1l-0.5-0.1v-0.4h0.8l0.7,0c0.4,0,0.7,0,0.9,0l2.7,0l1.3,0
				c0.4,0,0.9,0,1.3,0c-0.2,0.6-0.3,1.3-0.3,2.2h-0.5c0-0.5,0-0.9-0.1-1.3c-0.6-0.2-1.2-0.3-2-0.3c-0.6,0-1.3,0-2,0.1
				c0,0.4,0,0.9,0,1.3l0,1.1v1.4c0.5,0,0.9,0,1.2,0c1.1,0,1.7,0,1.9-0.1c0.1-0.1,0.2-0.3,0.2-0.7v-0.5h0.5c0,0.7,0,1.3,0,1.7
				c0,0.4,0,1,0,1.6h-0.5v-0.4c0-0.4-0.1-0.7-0.3-0.8c-0.2-0.1-0.8-0.2-1.9-0.2C73.9,56.3,73.5,56.3,73.1,56.3z"/>
			<path class="st1" d="M91.2,51.6C91.1,52,91,52.7,91,53.5h-0.5v-0.6c0-0.4,0-0.6-0.1-0.7s-0.4-0.3-0.8-0.4s-0.9-0.2-1.3-0.2
				c-0.7,0-1.3,0.2-1.8,0.6c-0.4,0.4-0.6,0.9-0.6,1.5c0,0.4,0.1,0.7,0.3,1c0.2,0.3,0.4,0.5,0.7,0.6c0.3,0.1,0.9,0.2,1.9,0.3
				c1,0.1,1.6,0.2,2,0.4c0.3,0.2,0.6,0.4,0.8,0.7c0.2,0.3,0.3,0.7,0.3,1.2c0,0.9-0.4,1.8-1.2,2.4s-1.8,1-3.1,1c-0.4,0-0.9,0-1.4-0.1
				s-0.9-0.2-1.4-0.4c0.1-0.6,0.1-1.3,0.1-2.2h0.5v0.4c0,0.5,0,0.7,0.1,0.8c0,0.1,0.2,0.2,0.3,0.3c0.3,0.2,0.6,0.3,0.9,0.4
				c0.4,0.1,0.7,0.1,1.2,0.1c0.9,0,1.6-0.2,2.1-0.6s0.7-0.9,0.7-1.6c0-0.4-0.1-0.7-0.2-1c-0.2-0.3-0.4-0.5-0.7-0.6
				c-0.3-0.1-0.8-0.2-1.6-0.3c-1.1-0.1-1.8-0.2-2.2-0.4c-0.4-0.2-0.7-0.4-0.9-0.8c-0.2-0.4-0.3-0.8-0.3-1.4c0-0.9,0.3-1.7,1-2.2
				s1.6-0.9,2.7-0.9c0.5,0,0.9,0.1,1.4,0.2C90.3,51.2,90.8,51.4,91.2,51.6z"/>
			<path class="st1" d="M98.2,60.6h0.4c0.4,0,0.7-0.1,0.8-0.3c0.1-0.2,0.1-1.2,0.1-3v-2.4c0-1.9,0-2.9-0.1-3.1
				c-0.1-0.2-0.3-0.3-0.7-0.3h-0.6v-0.4c0.8,0,1.5,0,2.3,0c0.6,0,1.2,0,1.7,0v0.4h-0.5c-0.3,0-0.5,0-0.6,0.1
				c-0.1,0.1-0.1,0.3-0.1,0.6c0,0.5,0,1.4,0,2.7v2.4c0,1.8,0,2.8,0.1,3c0.1,0.2,0.3,0.3,0.8,0.3h0.5v0.4c-0.6,0-1.2,0-1.9,0
				c-0.8,0-1.5,0-2.1,0V60.6z"/>
			<path class="st1" d="M118.5,57.8c-0.1,0.4-0.1,0.8-0.1,1.2c0,0.4,0,0.9,0.1,1.5c-0.6,0.2-1.3,0.4-2.1,0.6s-1.5,0.2-2.3,0.2
				c-1.1,0-2.1-0.2-2.9-0.7c-0.8-0.4-1.5-1-1.9-1.8c-0.4-0.8-0.7-1.6-0.7-2.6c0-1,0.2-1.9,0.7-2.7s1.2-1.4,2-1.8
				c0.9-0.4,2-0.7,3.3-0.7c0.5,0,1,0,1.5,0.1c0.5,0.1,1,0.2,1.8,0.4l0.6,0.2c-0.1,0.5-0.2,1.2-0.3,2.1h-0.4v-0.5
				c0-0.5,0-0.7-0.1-0.8c-0.1-0.1-0.5-0.3-1.1-0.6c-0.6-0.2-1.3-0.3-2.1-0.3c-1.4,0-2.4,0.4-3.2,1.1c-0.8,0.8-1.2,1.9-1.2,3.2
				c0,1.3,0.4,2.3,1.1,3.2c0.8,1,2,1.5,3.5,1.5c0.8,0,1.6-0.2,2.5-0.5c0-0.4,0-0.8,0-1.3c0-0.6,0-0.9,0-1c0-0.1-0.1-0.1-0.1-0.2
				c0,0-0.3-0.1-0.7-0.1l-0.8-0.1v-0.4c1.1,0,1.9,0.1,2.4,0.1c0.4,0,0.8,0,1.2-0.1v0.4L118.5,57.8z"/>
			<path class="st1" d="M127.5,52.7v4.9c0,1.1,0,1.9,0.1,2.3c0,0.3,0.1,0.5,0.2,0.6c0.1,0.1,0.3,0.1,0.7,0.2l0.5,0v0.4
				c-0.5,0-1,0-1.4,0c-0.3,0-0.9,0-2,0v-0.4h0.5c0.3,0,0.5,0,0.6-0.1c0.1-0.1,0.2-0.3,0.2-0.5c0.1-0.5,0.1-1.2,0.1-2.1v-3.5
				c0-0.7,0-1.3,0-1.9c0-0.3,0-0.5-0.1-0.6c-0.1-0.1-0.2-0.2-0.3-0.3c-0.1-0.1-0.3-0.1-0.5-0.1h-0.4v-0.4c0.6,0,1,0,1.4,0
				c0.3,0,0.7,0,1.1,0c0.5,0.6,0.9,1.1,1.3,1.7c0.4,0.5,0.8,1.1,1.3,1.6l2.4,3c0.9,1.1,1.5,1.8,1.9,2.2V55c0-1.9,0-2.9-0.1-3.1
				c-0.1-0.2-0.3-0.3-0.8-0.3l-0.5,0v-0.4c0.8,0,1.3,0,1.8,0c0.4,0,1,0,1.7,0v0.4h-0.5c-0.4,0-0.7,0.1-0.8,0.4
				c0,0.2-0.1,1.2-0.1,3.1v3.2c0,0.9,0,1.9,0.1,3.1c-0.6-0.1-1-0.2-1.1-0.2c-0.1,0-0.2-0.1-0.3-0.2c-0.5-0.6-1.1-1.2-1.6-1.9
				L127.5,52.7z"/>
			<path class="st1" d="M149.6,51.6c-0.1,0.5-0.2,1.1-0.2,1.9h-0.5v-0.6c0-0.4,0-0.6-0.1-0.7c-0.1-0.1-0.4-0.3-0.8-0.4
				c-0.4-0.1-0.9-0.2-1.3-0.2c-0.7,0-1.3,0.2-1.8,0.6c-0.4,0.4-0.6,0.9-0.6,1.5c0,0.4,0.1,0.7,0.3,1s0.4,0.5,0.7,0.6
				c0.3,0.1,0.9,0.2,1.9,0.3c1,0.1,1.6,0.2,2,0.4c0.3,0.2,0.6,0.4,0.8,0.7c0.2,0.3,0.3,0.7,0.3,1.2c0,0.9-0.4,1.8-1.2,2.4
				c-0.8,0.7-1.8,1-3.1,1c-0.4,0-0.9,0-1.4-0.1c-0.5-0.1-0.9-0.2-1.4-0.4c0.1-0.6,0.1-1.3,0.1-2.2h0.5v0.4c0,0.5,0,0.7,0.1,0.8
				c0,0.1,0.2,0.2,0.3,0.3c0.3,0.2,0.6,0.3,0.9,0.4s0.7,0.1,1.2,0.1c0.9,0,1.6-0.2,2.1-0.6c0.5-0.4,0.7-0.9,0.7-1.6
				c0-0.4-0.1-0.7-0.2-1c-0.2-0.3-0.4-0.5-0.7-0.6c-0.3-0.1-0.8-0.2-1.6-0.3c-1.1-0.1-1.8-0.2-2.2-0.4s-0.7-0.4-0.9-0.8
				c-0.2-0.4-0.3-0.8-0.3-1.4c0-0.9,0.3-1.7,1-2.2s1.6-0.9,2.7-0.9c0.5,0,0.9,0.1,1.4,0.2C148.7,51.2,149.2,51.4,149.6,51.6z"/>
		</g>
		<path class="st2" d="M182.5,34.3l-0.3-0.2c-6.6,9.4-12.2,6.9-12.3,2.4c1.5-1.3,2.6-2.6,3.8-4.6c0,0,1.9-3.6,1-4.5
			c-0.3-0.3-0.7-0.3-1.2,0c-0.1,0-0.1,0.1-0.2,0.1c0,0-3.3,1.8-4.7,6.2c-0.4,1.1-0.5,2.2-0.6,3.3c-0.1,0-0.1,0.1-0.2,0.1
			c-1.8,0.8-4.2,1.4-5.8,0.5c0-1.7-0.4-3.9-1.7-6.7c-0.3-0.6-0.6-1.1-0.9-1.7c-0.4-0.7-0.8-1.4-1.1-2c0.6-0.8,1-1.6,1-2.4
			c0-0.5-0.7-2.2-2.1-1.8c-1.4,0.4-1,3.1-1,3.1c0.1,0.7,0.3,1.3,0.5,1.9c0,0-0.1,0.1-0.1,0.1c-3.4,3.9-11.4,8.3-11.8,7.4
			c-0.1-1.2-0.6-3.4-2.2-3.6c-0.3,0-6-1.3-9.4,3.7c-0.1,0.2-5.6,5-7.9,3.7c-1.1-0.6,2.1-4.3,0.3-7c-1-1.5-2.8,0.6-7-0.4
			c0.5-0.6,1.6-4.7-1.3-3.6c-1.8,0.7,0,3.8,0.2,4c-0.6,1.1-1.5,2.5-2.7,3.7c-1.9,2.1-9.4,7-10.2-2.8c7.2-9,9.1-15.5,7.6-16.8
			c-0.2-0.2-0.7-0.4-1.4-0.1c0,0-3,1.1-6.8,9.6c-1.1,2.6-1.7,5.9-1.6,8.8c-5.3,6.7-8.5,6.4-10,5.1c-0.9-0.8-1-2.6-0.8-4.1
			c0.3-0.3,0.7-0.6,1-0.9c3-2.6,4.3-6.2,3.9-7.6c-0.2-0.5-0.5-0.7-0.7-0.7c-0.1,0-0.2,0-0.4,0c0,0-4.2,1.7-5.7,9.8
			C88,38,84,40.9,83.5,33.5c-0.7-8.4-9.1,1.4-11.3,4.1c-0.2,0.2-0.4,0.4-0.6,0.6c0-0.1,1.9-5.1,2.1-7.7c0.1-2.1-1.3-2.8-1.3-2.8
			c-1.2-0.7-3.1,0.2-6.2,2.7c-0.8,0.7-2,1.8-3.2,3.1l4-6.4L65,26.1L53.5,44.4l1.5,0.8l6.1-8c1.9-2.1,4.1-5,5.5-6.1
			c3.3-2.6,4.5-3,5.3-2.7c1.5,0.6-3,11-3.4,12.2l1.6,0.5l0.1,0.1c0,0,0,0,0,0c0,0,1.2-1.4,1.5-1.8c0.5-0.5,0.9-1.1,1.4-1.6
			c4.5-5.1,8.6-7.9,8.7-4.6c0,1.8-0.5,5.4,1.8,6.7c0.7,0.4,4,0.4,6.4-2.5c0.1,1.4,0.1,2.6,1.3,3.7c3.9,3.7,7.7-1,11.4-5.2
			c0.1,1.2,0.4,2.3,1,3.3c0.8,1.6,2.4,2.7,4.2,2.5c5.2-0.7,8.8-5.8,10.5-9c0.7,0.3,1.6,0.4,3,0.4c6.9-0.9,0.6,5.4,2.6,7.9
			c1.3,1.7,7.5-2.3,8.7-3.3c-0.7,4,2.4,4.8,2.4,4.8c1.4,0.6,3.3,0.5,5.1-0.4c1.2-0.6,3.8-2.1,4.6-4.7c3.7-0.8,9.4-4.9,12.4-8.7
			c0.2,0.5,0.5,0.9,0.8,1.4c0.3,0.5,0.6,1,0.8,1.5c0.5,1.1,1.2,2.9,1.5,4.7c0,0,0,0,0,0c-2.1-1.5-4.5-1.5-5.6-0.9
			c-1.4,0.8-2.1,2.7-1.7,4.3c0.9,4.1,6.3,4.7,8.9-0.4c2.7,0.3,4.9-0.7,6.3-1.6C168.5,42.3,175.5,45.6,182.5,34.3z M92.2,34.4
			c-0.1,0.1-0.2,0.1-0.3,0.2c0.4-1.5,1.1-2.9,1.8-4.1l0.1-0.1c0.5-1,1.2-2.1,2.1-2.5C95.9,29.2,94.8,32.1,92.2,34.4z M104.5,31.9
			c-0.5-5.8,6.2-15.1,7-14.9C113,17.6,111.1,23.3,104.5,31.9z M118,31.4c-0.6-0.2-0.9-2.2,0.2-2.2c0.1,0,0.2,0,0.2,0.1
			C118.7,29.5,118.5,31,118,31.4z M142.5,32.7c1.3,0.4,1.6,1.9,1.6,3c-0.7,0-1.4-0.1-2-0.4C139.6,34.3,141.6,32.4,142.5,32.7z
			 M134.5,36.7c0.7-1.9,3.2-2.9,5.1-3.3c-0.1,0.3-0.1,0.5-0.1,0.8c0,1.1,0.7,2.1,1.7,2.6c0.8,0.4,1.7,0.6,2.5,0.6
			C141.9,42.5,132.3,43.2,134.5,36.7z M158.7,24.7c0.3,0.6-0.5,2-0.7,1.5C157.5,25.3,158.3,23.8,158.7,24.7z M156.2,36.1
			c2.6-0.2,5.3,3.8,2.1,5.6C154.1,44,151.3,37.4,156.2,36.1z M174.2,27.9c0.5,0-0.7,2.9-1.1,3.6c-1,1.7-1.9,2.9-3.1,3.9
			C170.7,31,173.7,27.7,174.2,27.9z"/>
	</g>
	<g>
		<g>
			<text transform="matrix(1 0 0 1 89.838 77.8819)" class="st0 st3 st4">Etsy Shop</text>
		</g>
		<line class="st5" x1="150.2" y1="66" x2="53.5" y2="66"/>
		<line class="st5" x1="150.2" y1="82.7" x2="53.5" y2="82.7"/>
	</g>
</g>
</svg>
